<svg width="130" height="21" viewBox="0 0 130 21" fill="none" xmlns="http://www.w3.org/2000/svg">
<path d="M9.51575 0.953293C9.7113 0.453069 10.3774 0.453069 10.5729 0.953293L12.9384 7.00446C13.0208 7.21534 13.2072 7.35944 13.4212 7.37769L19.5611 7.90141C20.0687 7.9447 20.2745 8.61866 19.8878 8.97111L15.2098 13.2347C15.0468 13.3833 14.9756 13.6164 15.0254 13.8385L16.4545 20.2134C16.5727 20.7403 16.0339 21.1569 15.5993 20.8745L10.3427 17.4584C10.1595 17.3394 9.92911 17.3394 9.74591 17.4584L4.48928 20.8745C4.05473 21.1569 3.5159 20.7403 3.63406 20.2134L5.06326 13.8385C5.11306 13.6164 5.04186 13.3833 4.87884 13.2347L0.20085 8.97111C-0.185866 8.61866 0.0199544 7.9447 0.527516 7.90141L6.66745 7.37769C6.88143 7.35944 7.06782 7.21534 7.15027 7.00446L9.51575 0.953293Z" fill="#FDB022"/>
<path d="M36.9936 0.953293C37.1891 0.453069 37.8552 0.453069 38.0508 0.953293L40.4163 7.00446C40.4987 7.21534 40.6851 7.35944 40.8991 7.37769L47.039 7.90141C47.5465 7.9447 47.7524 8.61866 47.3656 8.97111L42.6877 13.2347C42.5246 13.3833 42.4534 13.6164 42.5032 13.8385L43.9324 20.2134C44.0506 20.7403 43.5118 21.1569 43.0772 20.8745L37.8205 17.4584C37.6373 17.3394 37.407 17.3394 37.2238 17.4584L31.9672 20.8745C31.5326 21.1569 30.9938 20.7403 31.1119 20.2134L32.5411 13.8385C32.5909 13.6164 32.5197 13.3833 32.3567 13.2347L27.6787 8.97111C27.2919 8.61866 27.4978 7.9447 28.0053 7.90141L34.1453 7.37769C34.3592 7.35944 34.5456 7.21534 34.6281 7.00446L36.9936 0.953293Z" fill="#FDB022"/>
<path d="M64.4714 0.953293C64.6669 0.453069 65.333 0.453069 65.5286 0.953293L67.8941 7.00446C67.9765 7.21534 68.1629 7.35944 68.3769 7.37769L74.5168 7.90141C75.0244 7.9447 75.2302 8.61866 74.8435 8.97111L70.1655 13.2347C70.0024 13.3833 69.9312 13.6164 69.981 13.8385L71.4102 20.2134C71.5284 20.7403 70.9896 21.1569 70.555 20.8745L65.2984 17.4584C65.1152 17.3394 64.8848 17.3394 64.7016 17.4584L59.445 20.8745C59.0104 21.1569 58.4716 20.7403 58.5898 20.2134L60.0189 13.8385C60.0688 13.6164 59.9975 13.3833 59.8345 13.2347L55.1565 8.97111C54.7698 8.61866 54.9756 7.9447 55.4832 7.90141L61.6231 7.37769C61.8371 7.35944 62.0235 7.21534 62.1059 7.00446L64.4714 0.953293Z" fill="#FDB022"/>
<path d="M91.9492 0.953293C92.1448 0.453069 92.8109 0.453069 93.0064 0.953293L95.3719 7.00446C95.4544 7.21534 95.6408 7.35944 95.8547 7.37769L101.995 7.90141C102.502 7.9447 102.708 8.61866 102.321 8.97111L97.6433 13.2347C97.4803 13.3833 97.4091 13.6164 97.4589 13.8385L98.8881 20.2134C99.0062 20.7403 98.4674 21.1569 98.0328 20.8745L92.7762 17.4584C92.593 17.3394 92.3626 17.3394 92.1795 17.4584L86.9228 20.8745C86.4882 21.1569 85.9494 20.7403 86.0676 20.2134L87.4968 13.8385C87.5466 13.6164 87.4754 13.3833 87.3123 13.2347L82.6343 8.97111C82.2476 8.61866 82.4535 7.9447 82.961 7.90141L89.1009 7.37769C89.3149 7.35944 89.5013 7.21534 89.5837 7.00446L91.9492 0.953293Z" fill="#FDB022"/>
<path d="M119.427 0.953293C119.622 0.453069 120.289 0.453069 120.485 0.953293L122.85 7.00446C122.932 7.21534 123.119 7.35944 123.332 7.37769L129.472 7.90141C129.98 7.9447 130.185 8.61866 129.8 8.97111L125.121 13.2347C124.958 13.3833 124.887 13.6164 124.937 13.8385L126.366 20.2134C126.484 20.7403 125.945 21.1569 125.511 20.8745L120.254 17.4584C120.071 17.3394 119.84 17.3394 119.657 17.4584L114.401 20.8745C113.967 21.1569 113.427 20.7403 113.545 20.2134L114.974 13.8385C115.025 13.6164 114.954 13.3833 114.79 13.2347L110.112 8.97111C109.725 8.61866 109.931 7.9447 110.439 7.90141L116.579 7.37769C116.792 7.35944 116.979 7.21534 117.061 7.00446L119.427 0.953293Z" fill="#FDB022"/>
</svg>
