<svg width="1139" height="107" viewBox="0 0 1139 107" fill="none" xmlns="http://www.w3.org/2000/svg">
<path d="M12.1372 31.6748V31.8665L11.333 32.0581V40.5503L12.1372 40.7419V40.9336H8.32476V40.7419L9.12895 40.5503V33.3113L5.9718 41.0663H5.56968L1.47432 33.3113V40.3439L2.54656 40.7419V40.9336H0V40.7419L1.07224 40.3439V32.0581L0.268049 31.8665V31.6748H1.93597C2.18914 31.6748 2.41253 31.7043 2.59124 31.7633C2.76994 31.8222 2.94867 31.896 3.0827 31.9992C3.23163 32.1024 3.35076 32.2203 3.45501 32.353C3.55926 32.4857 3.64861 32.6479 3.73797 32.81L6.65683 38.3388L8.89067 32.81C8.96513 32.6184 9.03961 32.4562 9.14386 32.3235C9.23321 32.1908 9.35232 32.0729 9.48635 31.9697C9.62038 31.8665 9.78422 31.7928 9.97782 31.7485C10.1714 31.7043 10.4097 31.6748 10.7075 31.6748H12.1372Z" fill="#B1B1B1"/>
<path d="M16.9028 34.137C17.4538 34.137 17.9601 34.2107 18.392 34.3729C18.8239 34.535 19.1962 34.7709 19.5089 35.0658C19.8216 35.3754 20.045 35.744 20.2088 36.1715C20.3727 36.5991 20.4471 37.1004 20.4471 37.6459C20.4471 38.1914 20.3727 38.6926 20.2088 39.1202C20.045 39.5478 19.8067 39.9163 19.5089 40.226C19.1962 40.5356 18.8239 40.7567 18.392 40.9189C17.9601 41.0811 17.4538 41.1548 16.9028 41.1548C16.3517 41.1548 15.8454 41.0811 15.4135 40.9189C14.9817 40.7567 14.6094 40.5208 14.2966 40.226C13.9839 39.9163 13.7605 39.5478 13.5967 39.1202C13.4329 38.6926 13.3584 38.1914 13.3584 37.6459C13.3584 37.1004 13.4329 36.5991 13.5967 36.1715C13.7605 35.744 13.9988 35.3754 14.2966 35.0658C14.6094 34.7562 14.9817 34.535 15.4135 34.3729C15.8454 34.2107 16.3369 34.137 16.9028 34.137ZM16.9028 40.9041C17.0517 40.9041 17.2006 40.8599 17.3644 40.7567C17.5133 40.6535 17.6474 40.4913 17.7665 40.2407C17.8856 39.9901 17.9899 39.6657 18.0644 39.2529C18.1388 38.8253 18.1835 38.2946 18.1835 37.6606C18.1835 37.0119 18.1388 36.4811 18.0644 36.0683C17.9899 35.6555 17.8856 35.3164 17.7665 35.0805C17.6474 34.8446 17.5133 34.6677 17.3644 34.5645C17.2155 34.4613 17.0666 34.4171 16.9028 34.4171C16.7538 34.4171 16.6049 34.4613 16.4411 34.5645C16.2922 34.6677 16.1581 34.8299 16.039 35.0805C15.9198 35.3312 15.8156 35.6555 15.7412 36.0683C15.6667 36.4959 15.622 37.0267 15.622 37.6606C15.622 38.3093 15.6667 38.8401 15.7412 39.2529C15.8156 39.6657 15.9198 40.0048 16.039 40.2407C16.1581 40.4766 16.2922 40.6535 16.4411 40.7567C16.59 40.8452 16.7389 40.9041 16.9028 40.9041Z" fill="#B1B1B1"/>
<path d="M26.9552 31.6748C27.7594 31.6748 28.1615 32.0729 28.1615 32.869V40.565L28.9657 40.7567V40.9484H27.7594C27.4318 40.9484 27.1786 40.9041 26.985 40.8009C26.7914 40.6977 26.6276 40.5798 26.5233 40.4618C26.3893 40.3144 26.2851 40.1375 26.2255 39.9605C26.1064 40.1964 25.9574 40.3881 25.7787 40.565C25.6298 40.7125 25.4213 40.8451 25.1681 40.9778C24.915 41.1105 24.6171 41.1695 24.2746 41.1695C23.8874 41.1695 23.53 41.0958 23.2023 40.9484C22.8598 40.8009 22.5769 40.5798 22.3386 40.2849C22.1003 39.99 21.8919 39.6215 21.7578 39.1939C21.6089 38.7516 21.5493 38.2503 21.5493 37.6606C21.5493 37.0709 21.6238 36.5696 21.7578 36.1273C21.9068 35.685 22.1003 35.3311 22.3684 35.0363C22.6215 34.7414 22.9343 34.5203 23.2917 34.3728C23.6491 34.2254 24.0512 34.1517 24.498 34.1517C24.7363 34.1517 24.9448 34.1812 25.1384 34.2254C25.332 34.2844 25.4957 34.3433 25.6298 34.4171C25.7936 34.4908 25.9276 34.5792 26.0468 34.6824V32.1024L25.2426 31.9107V31.719H26.9552V31.6748ZM26.017 35.0658C25.9127 34.9626 25.8234 34.8741 25.7043 34.8004C25.6 34.7267 25.4958 34.6677 25.3766 34.6087C25.2575 34.5498 25.1384 34.535 25.0043 34.535C24.8405 34.535 24.6767 34.5792 24.5278 34.6677C24.3788 34.7562 24.2597 34.9036 24.1406 35.1247C24.0363 35.3459 23.947 35.6702 23.8874 36.0683C23.8278 36.4811 23.7981 36.9971 23.7981 37.6458C23.7981 38.2798 23.8278 38.7811 23.8874 39.1792C23.947 39.5772 24.0214 39.8868 24.1257 40.108C24.215 40.3291 24.3193 40.4913 24.4533 40.565C24.5725 40.6387 24.6916 40.683 24.8107 40.683C25.0192 40.683 25.1979 40.624 25.3468 40.5208C25.4957 40.4176 25.6149 40.2849 25.7191 40.1522C25.8383 39.99 25.9425 39.8131 26.0319 39.6215V35.0658H26.017Z" fill="#B1B1B1"/>
<path d="M33.4479 41.1697C32.3012 41.1697 31.4077 40.8601 30.7822 40.2408C30.1419 39.6216 29.8291 38.7518 29.8291 37.6608C29.8291 37.1153 29.9036 36.614 30.0674 36.1864C30.2312 35.7589 30.4546 35.3903 30.7376 35.0807C31.0205 34.7711 31.363 34.5499 31.78 34.3877C32.1821 34.2256 32.6288 34.1519 33.1203 34.1519C33.6266 34.1519 34.0734 34.2256 34.4606 34.3583C34.8627 34.5057 35.1903 34.6974 35.4733 34.9333C35.7562 35.1691 35.9647 35.4493 36.1136 35.7736C36.2626 36.098 36.337 36.4371 36.337 36.8057C36.337 36.9236 36.337 37.0415 36.3221 37.13C36.3072 37.2185 36.2924 37.3069 36.2775 37.3806C36.2477 37.4691 36.2328 37.5428 36.203 37.6018C35.8158 37.6755 35.3988 37.7492 34.952 37.7935C34.5797 37.8524 34.1479 37.8967 33.6564 37.9261C33.165 37.9556 32.6586 37.9851 32.1225 37.9851C32.1225 38.5306 32.1672 38.9877 32.2416 39.3562C32.3161 39.7248 32.4352 40.0197 32.5693 40.2261C32.7182 40.4473 32.882 40.5947 33.0756 40.6831C33.2692 40.7716 33.4926 40.8158 33.716 40.8158C33.9841 40.8158 34.2372 40.7716 34.4755 40.6684C34.7137 40.5652 34.9222 40.4473 35.0861 40.2851C35.2648 40.1229 35.3988 39.9312 35.503 39.7248C35.6073 39.5184 35.652 39.312 35.652 39.0909H35.9796C35.9796 39.3562 35.92 39.6069 35.8009 39.8575C35.6818 40.1082 35.5031 40.3293 35.2797 40.521C35.0563 40.7126 34.7882 40.8601 34.4755 40.978C34.1776 41.1107 33.8351 41.1697 33.4479 41.1697ZM32.1076 37.646C32.4055 37.646 32.6735 37.646 32.9118 37.6313C33.1501 37.6165 33.3437 37.6018 33.5075 37.587C33.7011 37.5723 33.85 37.5428 33.984 37.5281C33.9989 37.4396 34.0287 37.3364 34.0436 37.2332C34.0585 37.13 34.0734 37.0268 34.0883 36.9089C34.1032 36.7909 34.1032 36.6582 34.1032 36.5255C34.1032 36.1275 34.0734 35.7884 34.0138 35.523C33.9542 35.2576 33.8798 35.0365 33.7755 34.8595C33.6862 34.6974 33.5819 34.5647 33.4479 34.5057C33.3139 34.4467 33.2096 34.4025 33.0905 34.4025C32.9714 34.4025 32.8522 34.4467 32.7331 34.5352C32.614 34.6236 32.5097 34.7858 32.4055 35.007C32.3161 35.2429 32.2268 35.5672 32.1672 35.9948C32.1076 36.4223 32.1076 36.9678 32.1076 37.646Z" fill="#B1B1B1"/>
<path d="M41.9664 34.594C41.6984 34.594 41.4601 34.653 41.2516 34.7562C41.0431 34.8594 40.8644 34.9921 40.7155 35.1248C40.5517 35.2869 40.4176 35.4639 40.2836 35.6555V40.5651L41.0878 40.7567V40.9484H37.335V40.7567L38.1392 40.5651V34.7267L37.335 34.535V34.3434H38.5412C38.854 34.3434 39.1071 34.4023 39.3156 34.5055C39.5092 34.6087 39.673 34.7267 39.7922 34.8446C39.9262 34.9921 40.0305 35.1543 40.09 35.3312C40.2241 35.1395 40.3879 34.9626 40.5815 34.8004C40.7453 34.6677 40.9538 34.5498 41.207 34.4318C41.4601 34.3139 41.7431 34.2697 42.0856 34.2697C42.5621 34.2697 42.9196 34.3876 43.1578 34.594C43.3961 34.8152 43.5003 35.1248 43.5003 35.5228C43.5003 35.8177 43.411 36.0683 43.2323 36.2453C43.0536 36.4222 42.8004 36.5106 42.5026 36.5106C42.4281 36.5106 42.3685 36.5106 42.2941 36.5106C42.2196 36.5106 42.1749 36.4959 42.1303 36.4959C42.0707 36.4812 42.0111 36.4812 41.9664 36.4517V34.594Z" fill="#B1B1B1"/>
<path d="M49.2635 36.3189C49.2635 36.0241 49.2337 35.7587 49.1742 35.5376C49.1146 35.3164 49.0402 35.1395 48.9359 35.0068C48.8466 34.8594 48.7423 34.7562 48.6083 34.6972C48.4892 34.6382 48.37 34.594 48.2508 34.594C48.0424 34.594 47.8637 34.653 47.7148 34.7562C47.5658 34.8594 47.4318 34.992 47.3424 35.1247C47.2233 35.2869 47.1339 35.4638 47.0446 35.6555V40.565L47.8488 40.7567V40.9483H44.0959V40.7567L44.9001 40.565V34.7267L44.0959 34.535V34.3433H45.3022C45.615 34.3433 45.8681 34.4023 46.0766 34.5055C46.2702 34.6087 46.434 34.7267 46.5532 34.8446C46.6872 34.992 46.7914 35.1542 46.851 35.3311C46.9701 35.11 47.1191 34.9036 47.2978 34.7267C47.4467 34.5792 47.6552 34.4465 47.8935 34.3139C48.1317 34.1812 48.4444 34.1222 48.8019 34.1222C49.1891 34.1222 49.5465 34.1812 49.8592 34.3139C50.1869 34.4318 50.4549 34.6087 50.6783 34.8004C50.9017 35.0068 51.0804 35.2279 51.2144 35.4933C51.3485 35.7587 51.408 36.0241 51.408 36.3042V40.5503L52.2122 40.7419V40.9336H50.4698C49.6656 40.9336 49.2635 40.5355 49.2635 39.7394V36.3189Z" fill="#B1B1B1"/>
<path d="M1.41479 50.2661V49.7206H11.7649V50.2661L9.59062 50.8116V61.9428H17.3941V50.8116L15.2199 50.2661V49.7206H25.57V50.2661L23.3957 50.8116V73.8112L25.57 74.3567V74.9022H15.2199V74.3419L17.3941 73.7964V62.8421H9.59062V73.7964L11.7649 74.3419V74.8874H1.41479V74.3419L3.58905 73.7964V50.7968L1.41479 50.2661Z" fill="#B1B1B1"/>
<path d="M38.4368 56.3699C39.9409 56.3699 41.2812 56.591 42.4726 57.0186C43.6639 57.4461 44.6617 58.0801 45.4957 58.9057C46.3297 59.7314 46.97 60.7339 47.4019 61.9134C47.8338 63.0928 48.0572 64.4197 48.0572 65.9088C48.0572 67.3979 47.8338 68.7248 47.4019 69.9042C46.97 71.0837 46.3297 72.0715 45.4957 72.8971C44.6617 73.7228 43.6491 74.3567 42.4726 74.7843C41.2812 75.2118 39.9409 75.433 38.4368 75.433C36.9327 75.433 35.5924 75.2118 34.401 74.7843C33.2096 74.3567 32.2118 73.7228 31.3779 72.8971C30.5439 72.0715 29.9035 71.069 29.4717 69.9042C29.0398 68.7248 28.8164 67.3979 28.8164 65.9088C28.8164 64.4197 29.0398 63.0928 29.4717 61.9134C29.9035 60.7339 30.5439 59.7461 31.3779 58.9057C32.2118 58.0654 33.2245 57.4461 34.401 57.0186C35.5924 56.591 36.9327 56.3699 38.4368 56.3699ZM38.4368 74.6958C38.8538 74.6958 39.2559 74.5631 39.6729 74.2977C40.0898 74.0324 40.4472 73.5753 40.7749 72.9119C41.1025 72.2484 41.3706 71.3491 41.5791 70.2138C41.7876 69.0786 41.8918 67.6338 41.8918 65.8793C41.8918 64.1249 41.7876 62.68 41.5791 61.5448C41.3706 60.4095 41.1025 59.5102 40.7749 58.8468C40.4472 58.1833 40.075 57.7263 39.6729 57.4609C39.2708 57.1955 38.8538 57.0628 38.4368 57.0628C38.0198 57.0628 37.6177 57.1955 37.2007 57.4609C36.7838 57.7263 36.4263 58.1833 36.0987 58.8468C35.7711 59.5102 35.503 60.4095 35.2945 61.5448C35.086 62.68 34.9818 64.1249 34.9818 65.8793C34.9818 67.6338 35.086 69.0786 35.2945 70.2138C35.503 71.3491 35.7711 72.2484 36.0987 72.9119C36.4263 73.5753 36.7987 74.0324 37.2007 74.2977C37.6177 74.5631 38.0198 74.6958 38.4368 74.6958Z" fill="#B1B1B1"/>
<path d="M75.2653 62.2968C75.2653 61.4416 75.1909 60.7045 75.042 60.1295C74.893 59.5545 74.7143 59.068 74.4761 58.6994C74.2378 58.3308 73.9846 58.0654 73.7165 57.8885C73.4336 57.7263 73.1655 57.6379 72.8975 57.6379C72.4358 57.6379 72.0337 57.7853 71.6763 58.0802C71.3189 58.375 71.0211 58.7141 70.753 59.068C70.47 59.4955 70.202 59.9821 69.9935 60.4981V73.7965L72.1826 74.342V74.8876H62.0261V74.342L64.2004 73.7965V62.2968C64.2004 61.4416 64.1259 60.7045 63.977 60.1295C63.8281 59.5545 63.6494 59.068 63.4111 58.6994C63.1728 58.3308 62.9197 58.0654 62.6516 57.8885C62.3687 57.7263 62.1006 57.6379 61.8325 57.6379C61.3709 57.6379 60.9688 57.7853 60.6114 58.0802C60.254 58.375 59.9561 58.7141 59.688 59.068C59.3902 59.4955 59.137 59.9821 58.9286 60.4981V73.7965L61.1028 74.342V74.8876H50.9463V74.342L53.1206 73.7965V57.9917L50.9463 57.4462V56.9007H54.2077C55.0566 56.9007 55.7565 57.0481 56.2926 57.3283C56.8436 57.6084 57.2606 57.9327 57.5883 58.2571C57.9457 58.6699 58.2137 59.1122 58.3924 59.584C58.7051 58.9795 59.0923 58.4488 59.554 57.9622C59.971 57.5494 60.4774 57.1808 61.073 56.8417C61.6836 56.5026 62.4133 56.3405 63.292 56.3405C64.7365 56.3405 66.0023 56.6648 67.0448 57.2988C68.1021 57.9327 68.9064 58.7584 69.4574 59.7609C69.7701 59.1417 70.1573 58.5814 70.619 58.0654C71.036 57.6379 71.5423 57.2398 72.138 56.886C72.7485 56.5321 73.4783 56.3405 74.3569 56.3405C75.3547 56.3405 76.2482 56.5026 77.0822 56.8122C77.9013 57.1218 78.6161 57.5494 79.2118 58.0949C79.8075 58.6404 80.2691 59.2596 80.5967 59.9821C80.9244 60.7045 81.0882 61.4711 81.0882 62.282V73.7818L83.2625 74.3273V74.8728H78.5416C76.3673 74.8728 75.2802 73.7965 75.2802 71.644V62.2968H75.2653Z" fill="#B1B1B1"/>
<path d="M95.2359 75.4182C92.1383 75.4182 89.7257 74.5778 88.0131 72.8824C86.3005 71.1869 85.4368 68.8722 85.4368 65.894C85.4368 64.4049 85.6602 63.0781 86.092 61.8986C86.5239 60.7191 87.1345 59.7313 87.9089 58.8909C88.6833 58.0653 89.6215 57.4314 90.7235 57.0038C91.8256 56.5763 93.0318 56.3551 94.3274 56.3551C95.6826 56.3551 96.9038 56.5468 97.9761 56.9301C99.0483 57.3134 99.9716 57.8294 100.716 58.4781C101.461 59.1268 102.042 59.8935 102.444 60.7634C102.846 61.6332 103.039 62.562 103.039 63.5498C103.039 63.8889 103.024 64.1838 102.98 64.4344C102.935 64.6851 102.905 64.9062 102.846 65.0979C102.771 65.3338 102.712 65.5402 102.667 65.7024C101.595 65.9235 100.478 66.1004 99.2866 66.2479C98.2739 66.3953 97.0974 66.5132 95.772 66.6312C94.4466 66.7344 93.0467 66.7934 91.6022 66.7934C91.6022 68.2824 91.7064 69.5209 91.9298 70.5087C92.1532 71.4965 92.451 72.2926 92.8382 72.8824C93.2254 73.4721 93.6871 73.8849 94.2232 74.1355C94.7593 74.3862 95.3401 74.5189 95.9656 74.5189C96.6953 74.5189 97.3804 74.3862 98.0207 74.1208C98.6611 73.8554 99.2121 73.5016 99.6887 73.0593C100.165 72.617 100.538 72.1157 100.82 71.5555C101.103 70.9952 101.237 70.4202 101.237 69.8452H102.146C102.146 70.5677 101.982 71.2606 101.654 71.924C101.327 72.6022 100.865 73.192 100.255 73.708C99.644 74.224 98.9292 74.6368 98.0803 74.9464C97.2166 75.256 96.2635 75.4182 95.2359 75.4182ZM91.6022 65.894C92.4212 65.894 93.151 65.8793 93.7764 65.8351C94.4019 65.7908 94.938 65.7613 95.3699 65.7171C95.8762 65.6729 96.3081 65.6139 96.6804 65.5402C96.7251 65.3043 96.7847 65.0389 96.8591 64.744C96.9038 64.4787 96.9485 64.1838 96.9783 63.8595C97.008 63.5351 97.0378 63.196 97.0378 62.8422C97.0378 61.7659 96.9485 60.8666 96.7846 60.1294C96.6208 59.3922 96.3975 58.8025 96.1443 58.3454C95.8911 57.8884 95.5933 57.5641 95.2806 57.3724C94.9529 57.1807 94.6253 57.0775 94.3125 57.0775C93.9998 57.0775 93.6722 57.1955 93.3445 57.4166C93.0169 57.6525 92.734 58.0801 92.4808 58.714C92.2276 59.348 92.0192 60.2473 91.8405 61.3973C91.6915 62.5473 91.6022 64.0511 91.6022 65.894Z" fill="#B1B1B1"/>
<path d="M120.865 74.5189V59.9377L107.85 49.7354V74.5189H120.865Z" fill="#B1B1B1"/>
<path d="M136.964 74.5189V59.9377L124.157 49.7354V74.5189H136.964Z" fill="#B1B1B1"/>
<g style="mix-blend-mode:multiply">
<path d="M303.338 105.657C332.404 105.657 355.967 82.3297 355.967 53.5541C355.967 24.7784 332.404 1.45117 303.338 1.45117C274.272 1.45117 250.709 24.7784 250.709 53.5541C250.709 82.3297 274.272 105.657 303.338 105.657Z" fill="white"/>
<path d="M303.338 106.394C273.911 106.394 249.964 82.6867 249.964 53.5539C249.964 24.4211 273.911 0.713867 303.338 0.713867C332.765 0.713867 356.712 24.4211 356.712 53.5539C356.712 82.6867 332.765 106.394 303.338 106.394ZM303.338 2.1882C274.73 2.1882 251.453 25.232 251.453 53.5539C251.453 81.8758 274.73 104.92 303.338 104.92C331.946 104.92 355.222 81.8758 355.222 53.5539C355.222 25.232 331.946 2.1882 303.338 2.1882Z" fill="#B1B1B1"/>
<path d="M310.844 6.74387C311.201 6.77335 311.514 6.7881 311.767 6.7881L311.737 7.02399C311.32 7.08296 310.963 7.39257 310.68 7.9823L307.135 15.0001L307.031 14.9854L306.942 14.9706L304.693 7.14194C304.544 6.62592 304.291 6.3458 303.934 6.30157L303.963 6.06567C304.291 6.12465 304.723 6.16888 305.259 6.22785C305.959 6.28682 306.48 6.33105 306.823 6.33105L306.793 6.56695C306.48 6.5522 306.257 6.56695 306.123 6.61118C305.989 6.65541 305.914 6.77335 305.899 6.92079C305.884 7.05348 305.914 7.24514 305.989 7.49578L307.642 13.4816L310.099 8.58678C310.307 8.18871 310.412 7.86436 310.442 7.62847C310.471 7.37783 310.397 7.18617 310.233 7.05348C310.069 6.92079 309.801 6.84707 309.444 6.80284L309.474 6.56695C309.905 6.64066 310.367 6.69964 310.844 6.74387Z" fill="#B1B1B1"/>
<path d="M320.851 9.85476C320.703 9.85476 320.583 9.91373 320.494 10.0317C320.405 10.1496 320.3 10.3413 320.196 10.6214L318.067 16.2239C317.962 16.504 317.903 16.7251 317.903 16.8726C317.903 17.02 317.947 17.138 318.052 17.2264C318.156 17.3149 318.35 17.4181 318.618 17.536L318.528 17.7572C318.186 17.6097 317.709 17.4181 317.099 17.1822C316.443 16.9316 315.952 16.7694 315.624 16.6662L315.714 16.445C315.997 16.5335 316.205 16.5777 316.339 16.5777C316.473 16.5777 316.607 16.5187 316.697 16.4008C316.786 16.2828 316.89 16.0912 316.994 15.8111L319.124 10.2086C319.228 9.92848 319.288 9.70733 319.288 9.55989C319.288 9.41246 319.243 9.29451 319.139 9.20605C319.035 9.11759 318.841 9.01439 318.573 8.89644L318.662 8.67529C318.975 8.80798 319.452 8.99965 320.107 9.25028C320.717 9.48618 321.209 9.64835 321.566 9.75156L321.477 9.97271C321.209 9.88425 321 9.84001 320.851 9.85476Z" fill="#B1B1B1"/>
<path d="M334.105 17.6538C333.957 17.6243 333.808 17.6686 333.674 17.757C333.54 17.8455 333.376 18.0224 333.197 18.273L328.878 24.0672L328.655 23.905L329.236 14.5872L325.408 19.7179C325.23 19.9685 325.111 20.1749 325.051 20.3371C324.991 20.4993 325.021 20.6467 325.096 20.7942C325.17 20.9416 325.349 21.1038 325.602 21.3102L325.453 21.5018C325.23 21.3102 324.902 21.0595 324.47 20.7352C324.083 20.4551 323.77 20.2339 323.532 20.1012L323.681 19.9096C323.919 20.0717 324.113 20.1602 324.262 20.1749C324.411 20.2044 324.56 20.1602 324.694 20.0717C324.828 19.9685 324.991 19.8064 325.17 19.5557L328.685 14.8379C328.863 14.5872 328.983 14.3956 329.027 14.2629C329.072 14.1302 329.057 13.9975 328.983 13.8795C328.908 13.7616 328.759 13.6142 328.521 13.4225L328.67 13.2308C328.863 13.4078 329.161 13.6436 329.563 13.9238C329.861 14.1449 330.114 14.3218 330.353 14.4545L329.876 22.2685L332.974 18.1109C333.152 17.8602 333.286 17.6538 333.331 17.4917C333.376 17.3295 333.361 17.182 333.286 17.0346C333.212 16.8872 333.033 16.7103 332.78 16.5186L332.929 16.3269C333.152 16.5186 333.48 16.7692 333.912 17.0936C334.299 17.3737 334.612 17.5949 334.85 17.7275L334.701 17.9192C334.448 17.7718 334.254 17.6686 334.105 17.6538Z" fill="#B1B1B1"/>
<path d="M339.094 24.3031C339.482 24.023 339.884 23.7134 340.316 23.3301C340.688 23.8903 341.343 24.8192 342.281 26.1313C343.22 27.4287 343.89 28.3428 344.292 28.8736C343.785 29.1684 343.354 29.4338 342.966 29.6992C342.639 29.9351 342.371 30.1415 342.177 30.3037L342.013 30.0825C342.49 29.6697 342.817 29.3306 343.011 29.08C343.205 28.8293 343.279 28.564 343.264 28.2838C343.249 28.0037 343.071 27.6646 342.788 27.2518L342.4 26.721L336.756 30.7017C336.488 30.8934 336.295 31.0703 336.205 31.203C336.116 31.3357 336.086 31.4979 336.146 31.6748C336.19 31.837 336.324 32.0729 336.518 32.3677L336.324 32.5152C336.101 32.1613 335.759 31.6601 335.312 31.0556C334.835 30.3921 334.478 29.9203 334.24 29.6255L334.433 29.478C334.656 29.7582 334.835 29.9498 334.984 30.053C335.133 30.1562 335.282 30.1857 335.446 30.1415C335.61 30.0973 335.833 29.9793 336.101 29.7877L341.745 25.807L341.358 25.2762C341.06 24.8634 340.792 24.6127 340.539 24.4948C340.286 24.3769 340.003 24.3621 339.705 24.4653C339.407 24.5685 338.975 24.7602 338.424 25.0698L338.26 24.8486C338.484 24.7307 338.752 24.5538 339.094 24.3031Z" fill="#B1B1B1"/>
<path d="M341.953 44.7668L341.715 44.8405C341.626 44.5162 341.507 44.1034 341.328 43.6021C341.104 42.9534 340.926 42.4669 340.792 42.1425L341.03 42.0688C341.134 42.3489 341.253 42.5553 341.343 42.6585C341.447 42.7617 341.581 42.7912 341.73 42.7323C341.864 42.688 342.028 42.5848 342.221 42.4226L343.874 41.081L342.936 38.324L341.551 38.265C341.104 38.2355 340.762 38.265 340.524 38.3535C340.285 38.4419 340.136 38.5746 340.077 38.7663C340.032 38.958 340.062 39.2381 340.166 39.5772L339.928 39.6509C339.809 39.2086 339.66 38.7663 339.511 38.324C339.392 37.9849 339.288 37.7048 339.183 37.4836L339.422 37.4099C339.63 37.7638 340.077 37.9554 340.732 37.9702L348.655 38.324L348.714 38.5009L342.4 43.7053C342.013 44.0739 341.864 44.413 341.953 44.7668ZM347.121 38.5009L343.219 38.3387L344.098 40.9336L347.121 38.5009Z" fill="#B1B1B1"/>
<path d="M343.04 56.0457C343.189 55.9867 343.264 55.913 343.264 55.8098C343.264 55.7509 343.249 55.7066 343.219 55.6624C343.189 55.6182 343.13 55.5297 343.04 55.4118C342.817 55.1316 342.653 54.8368 342.534 54.5419C342.415 54.247 342.355 53.9079 342.355 53.5394C342.341 52.7137 342.504 52.0061 342.832 51.4016C343.174 50.7971 343.651 50.3401 344.306 50.0157C344.947 49.6914 345.721 49.5292 346.63 49.5144C347.568 49.4997 348.387 49.6471 349.087 49.9715C349.787 50.2958 350.338 50.7381 350.725 51.3279C351.112 51.9176 351.321 52.581 351.321 53.3182C351.321 53.6426 351.291 53.9374 351.231 54.1881C351.172 54.4387 351.082 54.6599 350.978 54.8515C350.874 55.0432 350.74 55.2643 350.561 55.5002C350.487 55.6034 350.442 55.6919 350.442 55.7509C350.442 55.8983 350.695 56.0015 351.187 56.0457V56.3258C350.665 56.2964 349.727 56.2964 348.387 56.3258V56.0457C348.819 55.972 349.176 55.8835 349.459 55.7951C349.742 55.7066 349.98 55.5739 350.189 55.4118C350.472 55.1759 350.71 54.8663 350.874 54.4829C351.038 54.0996 351.112 53.7163 351.112 53.3035C351.097 52.7727 350.918 52.3157 350.561 51.9176C350.204 51.5195 349.697 51.2247 349.057 51.0035C348.402 50.7971 347.657 50.6939 346.793 50.7086C345.81 50.7234 345.021 50.8413 344.396 51.0625C343.77 51.2836 343.323 51.608 343.026 52.0355C342.728 52.4631 342.594 53.0086 342.609 53.672C342.623 54.1586 342.758 54.5714 343.011 54.9252C343.115 55.0727 343.204 55.1611 343.309 55.2054C343.398 55.2496 343.532 55.2643 343.696 55.2643L344.872 55.2496C345.215 55.2496 345.453 55.2054 345.617 55.1464C345.766 55.0874 345.885 54.9695 345.93 54.7925C345.989 54.6304 346.019 54.365 346.019 54.0111H346.257C346.242 54.4092 346.227 54.9695 346.242 55.7214C346.257 56.2816 346.272 56.7092 346.302 56.9746H346.064C346.049 56.7829 346.004 56.6502 345.959 56.5765C345.915 56.5028 345.81 56.4438 345.676 56.4143C345.542 56.3848 345.319 56.3701 345.006 56.3848L342.594 56.4291V56.1932C342.728 56.1342 342.892 56.1047 343.04 56.0457Z" fill="#B1B1B1"/>
<path d="M341.269 68.592C340.837 68.4594 340.331 68.3267 339.75 68.2087C339.943 67.6927 340.226 66.8228 340.628 65.5844C341.105 64.1101 341.447 62.9896 341.656 62.2377L341.894 62.3114C341.82 62.5915 341.79 62.7979 341.79 62.9453C341.805 63.0928 341.864 63.196 341.984 63.2844C342.103 63.3729 342.311 63.4614 342.594 63.5498L348.357 65.3485C348.655 65.437 348.864 65.4812 349.013 65.4812C349.162 65.4812 349.281 65.4222 349.37 65.3043C349.459 65.1863 349.549 64.9947 349.653 64.7293L349.891 64.803C349.623 65.5549 349.266 66.6607 348.789 68.135C348.432 69.2555 348.179 70.0664 348.06 70.5529C347.568 70.3465 347.121 70.1696 346.704 70.0516C346.407 69.9632 346.153 69.8895 345.975 69.86L346.064 69.5946C346.585 69.6978 346.987 69.742 347.255 69.742C347.524 69.742 347.747 69.6536 347.926 69.4766C348.104 69.3145 348.253 69.0196 348.387 68.6215L348.685 67.6632C348.774 67.3831 348.819 67.1767 348.804 67.044C348.789 66.9113 348.745 66.7934 348.626 66.7049C348.506 66.6164 348.313 66.528 348.015 66.4395L345.275 65.5844L345.036 66.3511C344.917 66.7344 344.947 67.0292 345.141 67.2357C345.334 67.4421 345.543 67.5895 345.781 67.6927C346.019 67.7959 346.168 67.8696 346.228 67.8991L346.139 68.1645C345.766 68.0171 345.409 67.8844 345.051 67.7812L344.5 67.619C344.113 67.501 343.547 67.3389 342.832 67.1767L342.922 66.9113C342.981 66.926 343.175 66.9555 343.503 67.0292C343.83 67.0882 344.113 67.0587 344.337 66.9408C344.56 66.8228 344.709 66.6017 344.813 66.2921L345.051 65.5254L342.252 64.6556C341.954 64.5671 341.745 64.5229 341.596 64.5229C341.447 64.5229 341.328 64.5819 341.254 64.6998C341.165 64.8178 341.075 65.0094 340.986 65.2895L340.718 66.1299C340.569 66.6164 340.509 66.9998 340.569 67.2799C340.614 67.5748 340.762 67.8106 341.016 68.0171C341.269 68.2087 341.656 68.4299 342.177 68.6658L342.088 68.9311C341.909 68.7984 341.626 68.71 341.269 68.592Z" fill="#B1B1B1"/>
<path d="M337.024 86.6823C337.084 86.5497 337.069 86.417 337.009 86.2843C336.95 86.1516 336.801 85.9894 336.577 85.7683L332.199 81.6254C331.976 81.419 331.797 81.2863 331.663 81.2273C331.529 81.1683 331.395 81.1683 331.261 81.2273C331.127 81.2863 330.963 81.419 330.754 81.6254L330.576 81.4632C330.859 81.2126 331.216 80.844 331.678 80.3869C332.154 79.8857 332.512 79.5023 332.735 79.2517L332.914 79.4139C332.72 79.635 332.601 79.812 332.541 79.9299C332.482 80.0626 332.497 80.1953 332.556 80.328C332.616 80.4607 332.765 80.6228 332.988 80.844L337.367 84.9869C337.59 85.1933 337.769 85.326 337.903 85.3849C338.037 85.4439 338.171 85.4439 338.305 85.3849C338.439 85.326 338.603 85.1933 338.811 84.9869L338.99 85.149C338.737 85.3702 338.364 85.7388 337.888 86.24C337.426 86.7118 337.084 87.0952 336.845 87.3753L336.667 87.2131C336.845 86.9919 336.964 86.815 337.024 86.6823Z" fill="#B1B1B1"/>
<path d="M324.619 95.6756C324.708 95.5429 324.723 95.4102 324.693 95.248C324.663 95.0858 324.559 94.8794 324.395 94.5993L320.702 88.3923L320.94 88.2449L329.369 92.4173L326.108 86.9328C325.944 86.6674 325.81 86.4757 325.676 86.3725C325.542 86.2693 325.393 86.2251 325.229 86.2398C325.066 86.2546 324.842 86.343 324.559 86.4905L324.425 86.2841C324.693 86.1661 325.051 85.9597 325.512 85.6943C325.929 85.4437 326.242 85.252 326.465 85.0898L326.585 85.2962C326.346 85.4437 326.182 85.5911 326.108 85.7238C326.019 85.8565 326.004 85.9892 326.034 86.1514C326.063 86.3135 326.168 86.5199 326.331 86.8001L329.34 91.857C329.489 92.1224 329.623 92.2993 329.742 92.3878C329.861 92.4762 329.98 92.5205 330.129 92.491C330.263 92.4615 330.471 92.3878 330.725 92.2551L330.844 92.4615C330.605 92.5794 330.278 92.7564 329.846 93.007C329.533 93.1839 329.265 93.3608 329.042 93.5083L321.968 90.0141L324.619 94.4666C324.783 94.732 324.917 94.9236 325.051 95.0268C325.17 95.13 325.319 95.1743 325.497 95.1595C325.676 95.1448 325.9 95.0563 326.182 94.9089L326.302 95.1153C326.034 95.2332 325.676 95.4397 325.214 95.705C324.798 95.9557 324.485 96.1473 324.261 96.3095L324.142 96.1031C324.366 95.9409 324.529 95.7935 324.619 95.6756Z" fill="#B1B1B1"/>
<path d="M316.428 97.607C316.533 98.0641 316.667 98.5653 316.845 99.0961C316.175 99.2141 315.058 99.4499 313.48 99.7743C311.901 100.113 310.799 100.364 310.144 100.526C310.069 99.9512 309.995 99.4499 309.891 98.9929C309.801 98.5948 309.727 98.2705 309.637 98.0346L309.906 97.9756C310.099 98.5801 310.278 99.0076 310.442 99.2878C310.605 99.5679 310.814 99.7448 311.082 99.8333C311.35 99.9217 311.737 99.907 312.229 99.8038L312.869 99.6711L311.41 92.9629C311.335 92.6385 311.261 92.4026 311.156 92.2699C311.052 92.1373 310.933 92.0488 310.754 92.034C310.576 92.0046 310.308 92.0341 309.95 92.093L309.906 91.8571C310.322 91.7982 310.918 91.6802 311.663 91.518C312.452 91.3411 313.048 91.2084 313.42 91.1052L313.465 91.3411C313.107 91.4296 312.869 91.518 312.72 91.6065C312.571 91.695 312.482 91.8276 312.452 91.9898C312.422 92.152 312.437 92.4026 312.512 92.727L313.971 99.4352L314.611 99.3025C315.103 99.1993 315.46 99.0519 315.669 98.8602C315.877 98.6685 315.996 98.4179 316.026 98.1083C316.056 97.7987 316.041 97.3269 315.967 96.7077L316.235 96.6487C316.279 96.8846 316.339 97.209 316.428 97.607Z" fill="#B1B1B1"/>
<path d="M296.666 93.4641C296.711 93.007 296.726 92.491 296.726 91.916C297.277 91.9897 298.2 92.0782 299.511 92.1961C301.059 92.3288 302.236 92.432 303.04 92.4763L303.025 92.7122C302.727 92.6974 302.519 92.7122 302.385 92.7564C302.251 92.8006 302.147 92.8743 302.087 93.007C302.027 93.1397 301.983 93.3609 301.953 93.6557L301.417 99.6268C301.387 99.9216 301.402 100.143 301.432 100.29C301.462 100.438 301.551 100.541 301.685 100.6C301.819 100.659 302.027 100.718 302.31 100.747L302.296 100.983C301.506 100.895 300.33 100.777 298.781 100.644C297.59 100.541 296.741 100.482 296.234 100.452C296.339 99.9364 296.413 99.4646 296.443 99.037C296.473 98.7274 296.488 98.4768 296.473 98.2851L296.756 98.3146C296.77 98.8454 296.8 99.2287 296.875 99.4941C296.934 99.7595 297.068 99.9511 297.277 100.084C297.47 100.217 297.798 100.305 298.215 100.334L299.228 100.423C299.526 100.452 299.734 100.438 299.868 100.408C300.002 100.379 300.106 100.29 300.166 100.158C300.225 100.025 300.27 99.8037 300.3 99.5088L300.553 96.6781L299.749 96.6044C299.347 96.5749 299.064 96.6634 298.9 96.8993C298.751 97.1351 298.632 97.371 298.587 97.6217C298.528 97.8723 298.498 98.0345 298.483 98.1082L298.2 98.0787C298.26 97.6807 298.304 97.3121 298.349 96.9435L298.394 96.3685C298.424 95.9557 298.453 95.3954 298.483 94.6583L298.766 94.6878C298.766 94.7467 298.781 94.9384 298.781 95.2775C298.796 95.6166 298.87 95.882 299.049 96.0589C299.213 96.2505 299.466 96.3538 299.794 96.3832L300.598 96.457L300.851 93.5673C300.881 93.2724 300.866 93.0512 300.836 92.9038C300.806 92.7711 300.717 92.6679 300.583 92.609C300.449 92.55 300.24 92.5057 299.957 92.4763L299.064 92.4025C298.558 92.3583 298.17 92.3878 297.887 92.5057C297.619 92.6089 297.411 92.8154 297.262 93.0955C297.113 93.3756 296.994 93.8032 296.875 94.3634L296.592 94.3339C296.592 94.1128 296.622 93.8179 296.666 93.4641Z" fill="#B1B1B1"/>
<path d="M284.946 87.9944C285.17 87.9501 285.423 87.9944 285.691 88.1123C286.004 88.245 286.212 88.4367 286.331 88.6873C286.45 88.9527 286.465 89.3213 286.391 89.8078L286.167 91.0167C286.093 91.4443 286.048 91.7687 286.033 92.0193C286.019 92.2552 286.078 92.4763 286.182 92.668C286.287 92.8597 286.48 93.0071 286.763 93.125L287.835 93.5673L288.923 91.002C289.042 90.7219 289.101 90.5155 289.116 90.368C289.131 90.2206 289.071 90.1027 288.967 89.9995C288.863 89.8963 288.684 89.793 288.416 89.6751L288.506 89.4539C288.848 89.6161 289.31 89.8225 289.92 90.0732C290.561 90.3386 291.052 90.5302 291.38 90.6334L291.29 90.8546C291.007 90.7514 290.799 90.7071 290.665 90.6924C290.516 90.6924 290.397 90.7366 290.308 90.8546C290.203 90.9578 290.099 91.1494 289.98 91.4296L287.642 96.9583C287.523 97.2384 287.463 97.4448 287.448 97.5923C287.433 97.7397 287.493 97.8576 287.597 97.9608C287.701 98.064 287.88 98.1673 288.148 98.2999L288.059 98.5211C287.746 98.3737 287.299 98.1673 286.704 97.9166C286.406 97.7987 286.093 97.666 285.736 97.5186C285.378 97.3711 285.14 97.2827 285.006 97.2237C284.425 96.973 283.963 96.6929 283.621 96.3538C283.278 96.0147 283.085 95.6609 282.995 95.2776C282.906 94.8942 282.951 94.5257 283.115 94.1571C283.234 93.8622 283.427 93.5968 283.695 93.3609C283.963 93.125 284.306 92.9481 284.723 92.8597C285.14 92.7712 285.646 92.7859 286.197 92.9186L286.063 92.8449C285.751 92.6533 285.512 92.4616 285.363 92.2552C285.214 92.0635 285.11 91.8424 285.08 91.6065C285.036 91.3706 285.051 91.0757 285.11 90.7219L285.319 89.4687C285.363 89.2181 285.393 89.0264 285.393 88.879C285.393 88.7315 285.378 88.6136 285.334 88.5251C285.289 88.4367 285.214 88.3629 285.11 88.3335C284.991 88.2745 284.872 88.2745 284.768 88.304C284.663 88.3335 284.514 88.4072 284.321 88.5104L284.202 88.3187C284.47 88.1565 284.723 88.0386 284.946 87.9944ZM285.691 93.243C285.334 93.2872 285.051 93.4199 284.827 93.6411C284.604 93.8622 284.41 94.1571 284.246 94.5404C283.993 95.1449 283.934 95.6756 284.097 96.1032C284.261 96.5307 284.663 96.8846 285.334 97.1647C285.572 97.2679 285.751 97.3121 285.899 97.2974C286.033 97.2974 286.153 97.2384 286.257 97.1205C286.361 97.0025 286.465 96.8109 286.57 96.5455L287.731 93.8032L286.972 93.4936C286.48 93.2872 286.048 93.1988 285.691 93.243Z" fill="#B1B1B1"/>
<path d="M273.33 89.9994C273.464 90.0437 273.598 90.0142 273.717 89.9405C273.836 89.8668 274 89.7046 274.194 89.4687L277.932 84.7508C278.125 84.5149 278.245 84.3233 278.289 84.1906C278.334 84.0579 278.319 83.9252 278.245 83.8072C278.17 83.6893 278.021 83.5271 277.798 83.3355L277.947 83.1438C278.23 83.3944 278.617 83.7188 279.138 84.1169C279.689 84.5444 280.106 84.854 280.389 85.0457L280.24 85.2374C280.002 85.0604 279.808 84.9572 279.674 84.9277C279.54 84.8835 279.406 84.8983 279.287 84.9867C279.168 85.0604 279.004 85.2226 278.81 85.4585L275.072 90.1764C274.879 90.4123 274.76 90.6039 274.715 90.7366C274.67 90.8693 274.685 91.002 274.76 91.1199C274.834 91.2379 274.983 91.4001 275.206 91.5917L275.058 91.7834C274.804 91.5622 274.402 91.2379 273.851 90.7956C273.33 90.3975 272.913 90.0879 272.615 89.8815L272.764 89.6898C273.017 89.852 273.196 89.9552 273.33 89.9994Z" fill="#B1B1B1"/>
<path d="M263.71 79.5022C263.65 78.8387 263.799 78.1753 264.142 77.5413C264.499 76.8926 265.035 76.3176 265.78 75.7721C266.51 75.2561 267.239 74.917 267.999 74.7843C268.758 74.6516 269.458 74.6959 270.113 74.9465C270.769 75.1971 271.32 75.6247 271.752 76.2292C272.213 76.8484 272.466 77.4971 272.526 78.1606C272.586 78.824 272.437 79.4875 272.094 80.1214C271.737 80.7701 271.201 81.3451 270.456 81.8906C269.726 82.4066 268.997 82.7457 268.237 82.8784C267.492 83.0111 266.778 82.9669 266.122 82.7162C265.467 82.4656 264.916 82.038 264.484 81.4483C264.023 80.8143 263.769 80.1656 263.71 79.5022ZM265.944 82.1265C266.465 82.2297 267.061 82.1855 267.716 81.9791C268.371 81.7727 269.026 81.4336 269.711 80.9323C270.396 80.4458 270.933 79.915 271.305 79.3548C271.692 78.7945 271.901 78.2343 271.93 77.7035C271.975 77.1728 271.841 76.701 271.558 76.3029C271.245 75.8901 270.843 75.6247 270.307 75.5215C269.786 75.4183 269.19 75.4625 268.535 75.6689C267.88 75.8753 267.224 76.2144 266.539 76.701C265.854 77.1875 265.318 77.7183 264.946 78.2932C264.559 78.8535 264.35 79.399 264.306 79.9445C264.261 80.4753 264.395 80.947 264.678 81.3451C264.991 81.7579 265.408 82.0233 265.944 82.1265Z" fill="#B1B1B1"/>
<path d="M264.856 61.7513C265.035 61.884 265.169 62.1051 265.259 62.4C265.363 62.7096 265.348 63.0045 265.229 63.2551C265.11 63.5205 264.827 63.7711 264.395 64.0218L263.308 64.6262C262.935 64.8474 262.652 65.0243 262.459 65.1718C262.265 65.3192 262.131 65.4961 262.057 65.7025C261.982 65.9089 261.982 66.1448 262.072 66.4397L262.414 67.5454L265.095 66.7198C265.393 66.6313 265.586 66.5429 265.705 66.4544C265.824 66.366 265.884 66.248 265.899 66.1153C265.914 65.9826 265.869 65.7615 265.795 65.4814L266.033 65.4076C266.122 65.7615 266.256 66.2628 266.465 66.882C266.673 67.5454 266.837 68.032 266.956 68.3416L266.718 68.4153C266.614 68.1352 266.524 67.9435 266.435 67.8403C266.346 67.7371 266.227 67.6634 266.078 67.6634C265.929 67.6634 265.705 67.6929 265.422 67.7961L259.644 69.5653C259.346 69.6537 259.153 69.7422 259.034 69.8306C258.914 69.9191 258.855 70.037 258.84 70.1697C258.825 70.3172 258.87 70.5236 258.944 70.8037L258.706 70.8774C258.631 70.5531 258.497 70.0813 258.304 69.4621C258.215 69.1672 258.095 68.8281 257.976 68.4743C257.857 68.1204 257.768 67.8698 257.723 67.7371C257.529 67.1326 257.47 66.6019 257.515 66.1301C257.559 65.6583 257.708 65.275 257.946 64.9653C258.185 64.6557 258.497 64.4493 258.885 64.3314C259.182 64.2429 259.51 64.2134 259.868 64.2577C260.225 64.3019 260.567 64.4493 260.925 64.7147C261.282 64.9801 261.58 65.3634 261.833 65.8794L261.818 65.732C261.774 65.3634 261.759 65.0685 261.818 64.8179C261.878 64.5673 261.982 64.3609 262.131 64.1839C262.295 64.007 262.533 63.8154 262.846 63.6384L263.948 62.9897C264.171 62.8718 264.35 62.7538 264.454 62.6654C264.559 62.5769 264.648 62.4885 264.693 62.4C264.737 62.3115 264.737 62.2083 264.708 62.1051C264.663 61.9724 264.603 61.884 264.514 61.825C264.425 61.766 264.276 61.6923 264.067 61.6186L264.142 61.3975C264.439 61.5007 264.693 61.6186 264.856 61.7513ZM261.297 65.7025C261.044 65.4666 260.746 65.3339 260.433 65.3044C260.121 65.275 259.763 65.3192 259.361 65.4519C258.721 65.6435 258.289 65.9531 258.051 66.3512C257.812 66.7493 257.812 67.2948 258.021 67.9582C258.095 68.1941 258.185 68.371 258.274 68.4743C258.363 68.5775 258.497 68.6364 258.646 68.6364C258.795 68.6364 259.019 68.5922 259.287 68.5185L262.146 67.6339L261.908 66.8525C261.759 66.3217 261.55 65.9384 261.297 65.7025Z" fill="#B1B1B1"/>
<path d="M263.71 47.7599C264.276 47.5092 264.618 47.0374 264.767 46.3298C264.812 46.0644 264.812 45.799 264.737 45.5484C264.663 45.2977 264.529 45.0766 264.32 44.8849C264.112 44.6933 263.829 44.5606 263.457 44.5016C263.144 44.4426 262.861 44.4721 262.593 44.5753C262.325 44.6785 262.057 44.8407 261.803 45.0618C261.55 45.283 261.252 45.5779 260.925 45.9464C260.553 46.3593 260.225 46.6983 259.942 46.9342C259.659 47.1849 259.346 47.3618 259.004 47.4945C258.661 47.6272 258.274 47.6419 257.842 47.5682C257.395 47.4797 257.023 47.3176 256.755 47.0522C256.487 46.7868 256.293 46.4772 256.204 46.1086C256.115 45.74 256.115 45.3567 256.189 44.9439C256.234 44.6933 256.293 44.5016 256.368 44.3247C256.442 44.1478 256.517 44.0151 256.606 43.9119C256.695 43.8087 256.785 43.6907 256.904 43.5728C257.053 43.4106 257.127 43.2926 257.157 43.2042C257.172 43.1305 257.142 43.0715 257.068 43.0125C256.993 42.9535 256.859 42.9093 256.681 42.8503L256.725 42.585C257.187 42.7029 257.991 42.8798 259.168 43.101L259.123 43.3664C258.706 43.3221 258.319 43.3369 257.932 43.4253C257.559 43.499 257.232 43.6612 256.964 43.9119C256.695 44.1478 256.517 44.4868 256.442 44.8997C256.383 45.1798 256.398 45.4304 256.472 45.6811C256.547 45.9317 256.681 46.1234 256.859 46.2855C257.053 46.4477 257.276 46.5509 257.544 46.6099C257.976 46.6836 258.348 46.6246 258.661 46.4182C258.974 46.2118 259.272 45.9464 259.555 45.6368C259.838 45.3272 260.016 45.1208 260.121 45.0176C260.538 44.5753 260.88 44.2362 261.163 43.9856C261.446 43.7349 261.759 43.558 262.101 43.4401C262.444 43.3221 262.816 43.3074 263.218 43.3811C263.71 43.4696 264.112 43.6612 264.41 43.9413C264.707 44.2362 264.901 44.5753 265.005 44.9881C265.11 45.4009 265.11 45.8432 265.02 46.315C264.946 46.6983 264.856 46.9932 264.722 47.2291C264.603 47.465 264.439 47.6714 264.261 47.8631C264.112 48.0252 264.037 48.1432 264.008 48.2317C263.993 48.3054 264.022 48.3643 264.097 48.4233C264.171 48.4823 264.305 48.5413 264.484 48.5855L264.439 48.8509C264.008 48.7329 263.054 48.5413 261.58 48.2759L261.625 48.0105C262.459 48.0842 263.144 48.0105 263.71 47.7599Z" fill="#B1B1B1"/>
<path d="M260.761 35.3312C260.344 35.1101 259.868 34.9037 259.332 34.6973C259.659 34.1223 260.21 33.1197 260.955 31.6896C261.699 30.2743 262.221 29.2717 262.504 28.6672C262.995 28.9768 263.442 29.2422 263.844 29.4486C264.201 29.6403 264.514 29.773 264.752 29.8762L264.618 30.1268C264.023 29.8909 263.576 29.7435 263.263 29.6993C262.95 29.6403 262.667 29.6993 262.429 29.8467C262.191 29.9941 261.953 30.289 261.729 30.7313L261.431 31.321L267.582 34.4908C267.88 34.653 268.118 34.7267 268.282 34.7415C268.446 34.7562 268.595 34.712 268.729 34.5941C268.863 34.4761 269.011 34.255 269.19 33.9453L269.414 34.0633C269.19 34.4319 268.907 34.9479 268.55 35.6261C268.178 36.3338 267.909 36.8793 267.746 37.2184L267.522 37.1004C267.671 36.7761 267.775 36.5254 267.79 36.3632C267.82 36.1863 267.775 36.0389 267.656 35.9062C267.537 35.7735 267.344 35.6408 267.046 35.4787L260.895 32.2941L260.582 32.8691C260.344 33.3114 260.24 33.6652 260.255 33.9453C260.27 34.2255 260.389 34.4761 260.612 34.6973C260.836 34.9184 261.208 35.2133 261.744 35.5524L261.61 35.803C261.416 35.6851 261.119 35.5229 260.761 35.3312Z" fill="#B1B1B1"/>
<path d="M271.275 18.3912C271.528 18.1406 271.736 17.9047 271.885 17.7278L272.064 17.9047C271.975 18.0374 271.93 18.2291 271.945 18.4502C271.96 18.6714 272.019 18.981 272.139 19.3495L273.494 23.345L275.072 24.893C275.296 25.0994 275.46 25.2469 275.594 25.3058C275.728 25.3648 275.862 25.3648 275.996 25.3058C276.13 25.2469 276.293 25.1142 276.517 24.9225L276.696 25.0994C276.413 25.3501 276.04 25.7039 275.579 26.161C275.087 26.6475 274.73 27.0308 274.506 27.2815L274.328 27.1045C274.521 26.8834 274.655 26.7212 274.715 26.5885C274.774 26.4558 274.774 26.3231 274.7 26.1904C274.64 26.0578 274.492 25.8808 274.283 25.6744L272.973 24.3918L267.999 22.9469C267.701 22.8585 267.477 22.829 267.328 22.8437C267.179 22.8585 267.075 22.9027 267.001 22.9764L266.822 22.7995C267.06 22.5931 267.328 22.3572 267.596 22.0771C268.147 21.5168 268.55 21.1187 268.773 20.8534L268.952 21.0303C268.55 21.4284 268.46 21.738 268.684 21.9591C268.773 22.0476 268.892 22.1065 269.071 22.1655L273.255 23.4482L272.153 20.1899C271.99 19.7181 271.826 19.3938 271.647 19.2316C271.483 19.0694 271.305 19.0252 271.111 19.0842C270.917 19.1431 270.694 19.2906 270.426 19.5412L270.247 19.3643C270.605 19.0399 270.932 18.7156 271.275 18.3912Z" fill="#B1B1B1"/>
<path d="M280.285 12.4496C280.196 12.5528 280.151 12.6855 280.181 12.8329C280.211 12.9804 280.285 13.1868 280.434 13.4521L283.308 18.7302C283.457 18.9956 283.576 19.1725 283.695 19.2758C283.8 19.379 283.934 19.4084 284.068 19.3937C284.202 19.379 284.41 19.2905 284.663 19.1578L285.453 18.7302C285.899 18.4944 286.212 18.2437 286.376 17.9931C286.54 17.7424 286.599 17.4623 286.555 17.1232C286.51 16.7841 286.376 16.3566 286.138 15.7963L286.391 15.6636C286.495 15.8995 286.644 16.1944 286.838 16.5482C287.061 16.9463 287.329 17.3886 287.657 17.8751C287.165 18.111 286.331 18.5386 285.185 19.1578C283.815 19.895 282.772 20.4552 282.087 20.8533L281.968 20.6469C282.221 20.4994 282.4 20.3668 282.489 20.2636C282.579 20.1604 282.623 20.0277 282.593 19.8802C282.564 19.7328 282.489 19.5264 282.34 19.261L279.436 13.9829C279.287 13.7175 279.168 13.5406 279.049 13.4374C278.945 13.3342 278.811 13.3047 278.677 13.3195C278.528 13.3342 278.334 13.4079 278.066 13.5406L277.962 13.3195C278.275 13.1868 278.736 12.9509 279.347 12.6118C279.928 12.3022 280.374 12.0515 280.687 11.8599L280.806 12.0663C280.553 12.2137 280.389 12.3464 280.285 12.4496Z" fill="#B1B1B1"/>
<path d="M298.424 13.3932C298.513 13.8355 298.647 14.3367 298.811 14.897C298.26 14.9854 297.351 15.1476 296.071 15.3983C294.537 15.6931 293.39 15.929 292.601 16.1059L292.556 15.87C292.839 15.7963 293.048 15.7374 293.167 15.6489C293.286 15.5752 293.36 15.4572 293.375 15.3245C293.39 15.1771 293.375 14.956 293.316 14.6611L292.154 8.77851C292.094 8.48365 292.035 8.27724 291.946 8.14455C291.856 8.01186 291.767 7.93814 291.618 7.9234C291.484 7.89391 291.26 7.90866 290.978 7.95289L290.933 7.717C291.722 7.58431 292.884 7.3779 294.403 7.08303C295.579 6.84714 296.413 6.68496 296.89 6.56702C296.934 7.09778 297.009 7.56956 297.083 7.98237C297.143 8.29198 297.202 8.52788 297.262 8.7048L296.994 8.76377C296.83 8.2625 296.681 7.89392 296.547 7.65802C296.413 7.42213 296.22 7.2747 295.996 7.20098C295.758 7.12726 295.445 7.12726 295.013 7.21572L294.016 7.40739C293.733 7.46636 293.524 7.52533 293.405 7.59905C293.286 7.67277 293.211 7.77597 293.182 7.9234C293.167 8.07083 293.182 8.29198 293.241 8.58685L293.792 11.3881L294.581 11.2259C294.984 11.1522 295.222 10.9753 295.311 10.7099C295.401 10.4445 295.43 10.1939 295.415 9.94324C295.401 9.6926 295.386 9.53042 295.386 9.45671L295.654 9.39773C295.698 9.7958 295.758 10.1644 295.832 10.5182L295.952 11.0785C296.026 11.4765 296.16 12.0368 296.354 12.7445L296.086 12.8034C296.071 12.7445 296.011 12.5675 295.907 12.2432C295.803 11.9188 295.654 11.6977 295.43 11.565C295.207 11.4323 294.954 11.4028 294.626 11.4618L293.837 11.6092L294.403 14.4547C294.462 14.7496 294.522 14.956 294.596 15.0887C294.671 15.2066 294.775 15.2803 294.924 15.3098C295.058 15.3245 295.281 15.3098 295.564 15.2508L296.443 15.0739C296.934 14.9707 297.307 14.838 297.545 14.6611C297.783 14.4842 297.917 14.2335 297.977 13.9239C298.036 13.6143 298.036 13.172 297.992 12.597L298.26 12.5381C298.305 12.7592 298.349 13.0393 298.424 13.3932Z" fill="#B1B1B1"/>
<path d="M288.386 69.6979C287.701 68.7838 287.105 67.7813 286.584 66.6755C286.063 65.5698 285.646 64.4493 285.333 63.2993C284.648 58.2424 284.633 53.3328 285.274 48.5707C285.914 43.8087 286.956 39.1203 288.386 34.4909C288.624 33.9749 289.146 33.7242 289.95 33.7242C290.754 33.7242 291.543 33.9011 292.347 34.255C293.152 34.6088 293.807 35.0806 294.328 35.6703C294.849 36.2601 294.968 36.8793 294.685 37.5133C294.239 38.4568 293.807 39.7395 293.375 41.3318C292.943 42.9388 292.511 44.708 292.124 46.6394C291.722 48.5707 291.379 50.6053 291.082 52.7136C290.784 54.8219 290.56 56.8565 290.426 58.7879C290.292 60.7192 290.262 62.4737 290.337 64.0365C290.411 65.5993 290.65 66.8377 291.052 67.7371C292.928 65.2454 294.641 62.6654 296.204 59.9968C297.768 57.3283 299.228 54.6303 300.598 51.8733C301.968 49.131 303.278 46.3592 304.514 43.5433C305.75 40.742 306.972 37.9703 308.163 35.2428C308.759 33.8569 309.354 32.3973 309.935 30.864C310.516 29.316 311.275 28.0038 312.243 26.8981C312.645 26.5442 312.958 26.4263 313.167 26.5442C313.39 26.6622 313.539 26.8833 313.613 27.2224C313.688 27.5615 313.733 27.9154 313.733 28.2839C313.733 28.6525 313.733 28.9474 313.733 29.1391C313.45 30.9525 313.211 32.7512 313.018 34.5351C312.824 36.319 312.392 38.0293 311.767 39.6953C310.724 42.3048 309.667 44.8849 308.565 47.465C307.463 50.0303 306.286 52.5662 305.036 55.0578C303.785 57.5494 302.415 59.9673 300.97 62.3115C299.511 64.6704 297.932 66.9114 296.204 69.0345C294.849 70.73 293.494 71.6293 292.169 71.7325C290.784 71.8504 289.548 71.1575 288.386 69.6979Z" fill="#B1B1B1" stroke="white" stroke-miterlimit="10"/>
<path d="M313.048 63.0045C312.244 61.8988 311.454 60.7783 310.68 59.6283C309.906 58.4783 309.518 57.2252 309.518 55.8393C309.518 54.306 309.965 52.8464 310.859 51.4753C311.752 50.1189 312.78 49.0131 313.941 48.1875C314.418 47.8779 314.909 47.6125 315.401 47.4209C315.892 47.2292 316.428 47.2439 316.994 47.4798C317.232 47.5978 317.486 47.6862 317.739 47.7452C317.992 47.8042 318.23 47.8779 318.424 47.9516C318.617 48.0253 318.841 48.1433 319.079 48.3055C319.317 48.4676 319.437 48.674 319.437 48.9542C319.437 50.0599 319.466 50.9593 319.526 51.6522C319.585 52.3451 319.675 52.9349 319.794 53.4361C319.913 53.9374 320.032 54.365 320.151 54.7335C320.271 55.1169 320.39 55.5149 320.509 55.9425C320.583 56.3406 320.568 56.6797 320.449 56.945C320.33 57.2252 320.032 57.2547 319.556 57.063C318.677 56.7534 318.022 56.1194 317.605 55.1611C317.188 54.2028 316.875 53.3477 316.681 52.5515C316.637 52.3894 316.547 52.124 316.384 51.7259C316.22 51.3278 316.13 51.0477 316.086 50.9003C315.773 50.8266 315.386 50.9298 314.954 51.2246C314.522 51.5195 314.12 51.9323 313.792 52.4336C313.45 52.9496 313.226 53.5393 313.137 54.2175C313.033 54.8957 313.167 55.5592 313.524 56.2374C313.688 56.4733 313.912 56.7681 314.209 57.0925C314.507 57.4316 314.805 57.7707 315.103 58.1245C315.401 58.4783 315.699 58.8322 315.996 59.1565C316.294 59.4809 316.547 59.761 316.741 59.9527C316.979 60.1886 317.143 60.3213 317.218 60.336C317.292 60.3507 317.501 60.3065 317.813 60.1886C318.215 59.9969 318.826 59.7315 319.645 59.4219C320.464 59.1123 321.328 58.788 322.221 58.4783C323.115 58.1687 323.979 57.9034 324.798 57.6822C325.617 57.4611 326.242 57.3579 326.689 57.3579C326.972 57.3579 327.166 57.4611 327.285 57.6527C327.404 57.7707 327.389 57.9328 327.225 58.1245C327.061 58.3162 326.853 58.5226 326.6 58.7142C326.347 58.9059 326.064 59.0828 325.796 59.245C325.513 59.4072 325.334 59.4956 325.259 59.5399C324.574 59.9379 323.726 60.3802 322.683 60.8815C321.641 61.368 320.747 61.8546 319.988 62.3264C319.913 62.4001 319.764 62.4885 319.541 62.5622C319.317 62.636 319.154 62.7244 319.034 62.7981C319.511 63.8597 319.854 64.7885 320.047 65.5551C320.241 66.3218 320.315 67.059 320.256 67.7814C320.196 68.4891 320.047 69.2115 319.809 69.9486C319.571 70.6858 319.243 71.5262 318.856 72.4698C318.29 73.3838 317.724 74.2537 317.143 75.0793C316.562 75.9049 315.922 76.6569 315.192 77.3351C314.477 78.0132 313.688 78.544 312.854 78.9273C312.02 79.3254 311.097 79.5171 310.099 79.5171C309.533 79.5171 308.997 79.4433 308.476 79.3107C307.955 79.178 307.523 78.8831 307.165 78.4555C306.242 77.4677 305.736 76.3915 305.617 75.2268C305.497 74.062 305.602 72.9121 305.914 71.7621C306.153 71.0544 306.451 70.4057 306.808 69.8012C307.687 68.2974 308.655 67.0295 309.712 65.9827C310.784 64.9507 311.886 63.9481 313.048 63.0045ZM315.088 65.6731C314.641 66.1154 314.046 66.7346 313.286 67.5455C312.527 68.3564 311.827 69.241 311.156 70.1845C310.501 71.1281 309.965 72.0717 309.548 73.0005C309.131 73.9293 309.027 74.7255 309.22 75.4037C310.025 75.0498 310.844 74.4601 311.678 73.6492C312.512 72.8383 313.256 71.9537 313.897 70.9807C314.537 70.0076 314.984 69.0493 315.237 68.1057C315.49 67.1474 315.445 66.3365 315.088 65.6731Z" fill="#B1B1B1" stroke="white" stroke-miterlimit="10"/>
<path d="M303.338 87.0065C284.707 87.0065 269.547 71.9978 269.547 53.5539C269.547 35.11 284.707 20.1013 303.338 20.1013C321.968 20.1013 337.128 35.11 337.128 53.5539C337.128 71.9978 321.968 87.0065 303.338 87.0065ZM303.338 21.5757C285.526 21.5757 271.036 35.9209 271.036 53.5539C271.036 71.1869 285.526 85.5322 303.338 85.5322C321.149 85.5322 335.639 71.1869 335.639 53.5539C335.639 35.9209 321.149 21.5757 303.338 21.5757Z" fill="#B1B1B1"/>
</g>
<path d="M506.015 75.6443H478.036C473.438 75.6443 469.712 71.9553 469.712 67.4034V39.7044C469.712 35.1525 473.438 31.4635 478.036 31.4635H506.015C510.612 31.4635 514.339 35.1525 514.339 39.7044V67.4034C514.339 71.9553 510.612 75.6443 506.015 75.6443Z" fill="#B1B1B1"/>
<path d="M500.065 53.9604C500.861 54.9483 501.265 56.0988 501.265 57.3993C501.265 59.3126 500.621 60.8132 499.332 61.8762C498.044 62.9391 496.2 63.4894 493.8 63.4894H483.316V41.1676H493.547C495.846 41.1676 497.614 41.6678 498.865 42.6557C500.115 43.6436 500.747 45.0567 500.747 46.8825C500.747 48.233 500.381 49.346 499.661 50.2464C498.941 51.1467 497.993 51.722 496.819 51.9971C498.195 52.3222 499.269 52.9725 500.065 53.9604ZM488.76 50.2964H492.334C494.229 50.2964 495.177 49.4961 495.177 47.8954C495.177 46.2947 494.204 45.4944 492.271 45.4944H488.76V50.2964ZM495.682 56.649C495.682 55.8487 495.417 55.2234 494.886 54.7732C494.355 54.3231 493.598 54.098 492.625 54.098H488.772V59.1125H492.663C494.671 59.1 495.682 58.2872 495.682 56.649Z" fill="white"/>
<path d="M540.195 63.4894L535.32 55.0609H534.082V63.4894H528.625V41.1676H537.934C539.715 41.1676 541.231 41.4677 542.456 42.0805C543.694 42.6932 544.616 43.5311 545.235 44.594C545.854 45.657 546.157 46.87 546.157 48.2455C546.157 49.8712 545.703 51.2468 544.806 52.3848C543.896 53.5227 542.595 54.298 540.865 54.7232L546.221 63.5019H540.195V63.4894ZM534.082 51.3718H537.454C538.541 51.3718 539.336 51.1342 539.842 50.659C540.347 50.1838 540.612 49.4836 540.612 48.5582C540.612 47.6703 540.347 46.9825 539.829 46.4698C539.311 45.9696 538.515 45.707 537.454 45.707H534.082V51.3718Z" fill="#B1B1B1"/>
<path d="M570.84 59.4253H562.389L560.987 63.502H555.252L563.513 41.3428H569.791L578.052 63.502H572.254L570.84 59.4253ZM569.438 55.3111L566.633 47.1077L563.791 55.3111H569.438Z" fill="#B1B1B1"/>
<path d="M608.153 63.4894H602.696L593.576 49.7837V63.4894H588.119V41.1676H593.576L602.696 54.9983V41.1676H608.153V63.4894Z" fill="#B1B1B1"/>
<path d="M638.746 58.1121C637.799 59.8003 636.435 61.1258 634.666 62.0762C632.885 63.0266 630.801 63.5018 628.401 63.5018H619.888V41.1801H628.401C630.826 41.1801 632.923 41.6427 634.679 42.5681C636.447 43.4935 637.799 44.794 638.746 46.4822C639.694 48.1704 640.161 50.0962 640.161 52.2972C640.161 54.4731 639.681 56.4114 638.746 58.1121ZM632.873 56.9866C634.047 55.8736 634.641 54.298 634.641 52.2847C634.641 50.2588 634.047 48.6957 632.873 47.5827C631.698 46.4697 630.043 45.907 627.909 45.907H625.332V58.6623H627.909C630.043 58.6623 631.698 58.1121 632.873 56.9866Z" fill="#B1B1B1"/>
<path d="M774.278 39.9178L775.395 39.6819C775.678 39.6819 775.916 39.7409 776.08 39.8588C776.244 39.9768 776.333 40.0947 776.333 40.1979C776.333 40.3011 776.304 40.4633 776.259 40.655C776.214 40.8466 775.797 42.8222 775.023 46.5523C774.248 50.2824 773.683 53.0689 773.325 54.897C775.053 52.5676 777.078 49.7074 779.386 46.3017C781.695 42.896 783.05 40.6402 783.437 39.5197C783.556 39.1659 783.72 38.9005 783.913 38.7089C784.107 38.5172 784.286 38.3993 784.435 38.3698C784.584 38.3403 784.822 38.3108 785.135 38.3108C785.447 38.3108 785.82 38.3845 786.252 38.5172C786.683 38.6499 786.907 38.871 786.907 39.1954C786.907 39.7851 786.013 41.5101 784.241 44.3408C782.469 47.1715 780.429 50.1792 778.135 53.3637C775.842 56.5483 773.936 59.0694 772.402 60.927C772.134 61.2514 771.791 61.4283 771.404 61.4283C771.017 61.4283 770.6 61.3546 770.168 61.2219C769.736 61.0892 769.513 60.8533 769.513 60.4995C769.513 59.3937 770.496 54.0567 772.461 44.5177C770.779 46.6703 768.738 49.6779 766.341 53.5259C763.839 57.5066 762.424 59.9835 762.096 60.927C761.918 61.502 761.709 61.8411 761.471 61.9296C761.307 62.0033 761.128 62.0328 760.95 62.0328L759.743 62.1655C759.505 62.1655 759.297 62.1065 759.088 61.9738C758.895 61.8411 758.79 61.7084 758.79 61.561C758.79 61.1629 759.356 59.954 760.473 57.9489C761.59 55.9438 762.915 53.7618 764.42 51.4029C765.924 49.0439 767.487 46.7587 769.126 44.5325C770.764 42.3062 772.029 40.8024 772.923 40.0505C773.102 39.8883 773.31 39.8146 773.548 39.8146L774.278 39.9178Z" fill="#B1B1B1"/>
<path d="M792.178 49.9139C792.953 49.9139 793.34 50.1793 793.34 50.6953C793.34 50.9754 793.28 51.1818 793.146 51.3145C793.012 51.4472 792.729 51.8748 792.298 52.6267C791.866 53.3638 791.389 54.3074 790.868 55.4721C790.347 56.6221 790.004 57.6099 789.855 58.4208C789.825 58.524 789.811 58.6567 789.811 58.8483C789.811 59.4086 789.959 59.674 790.272 59.674C790.585 59.674 790.942 59.5265 791.359 59.2464C791.776 58.9516 792.149 58.6567 792.476 58.3176C792.804 57.9932 793.117 57.6541 793.429 57.315C793.742 56.9759 793.921 56.7695 793.98 56.7253C794.04 56.6811 794.129 56.6516 794.248 56.6516C794.442 56.6516 794.561 56.799 794.606 57.0939C794.651 57.3888 794.665 57.6836 794.665 58.008C794.665 58.3323 794.636 58.5387 794.576 58.6567C794.278 59.2317 793.638 59.9246 792.625 60.7355C791.627 61.5464 790.704 61.9444 789.885 61.9444C789.066 61.9444 788.455 61.6938 788.083 61.2073C787.711 60.7207 787.502 60.1605 787.502 59.5708C787.502 58.9663 787.607 58.4503 787.815 57.9932C786.966 59.0842 785.998 59.9983 784.911 60.765C783.809 61.5169 782.93 61.9002 782.23 61.9002C781.53 61.9002 780.979 61.6938 780.533 61.281C779.967 60.765 779.699 60.0573 779.699 59.1432C779.699 58.2291 779.907 57.315 780.324 56.3862C780.741 55.4721 781.277 54.617 781.947 53.8651C782.618 53.0985 783.362 52.4055 784.166 51.7863C785.849 50.4741 787.413 49.8254 788.843 49.8254C789.394 49.8254 789.84 49.9139 790.183 50.0908C790.525 50.2677 790.749 50.5036 790.838 50.769C791.076 50.4004 791.285 50.1793 791.464 50.0761C791.598 49.9581 791.851 49.9139 792.178 49.9139ZM790.153 51.5946C788.411 51.5946 786.609 52.5529 784.747 54.4696C784.092 55.1625 783.481 55.9734 782.915 56.9317C782.35 57.89 782.081 58.5387 782.081 58.8926C782.081 59.2464 782.186 59.4233 782.394 59.4233C782.677 59.4233 783.466 58.8631 784.777 57.7573C786.088 56.6516 786.951 55.826 787.368 55.2952C787.845 54.7055 788.768 53.467 790.153 51.5946Z" fill="#B1B1B1"/>
<path d="M803.765 41.9229L804.39 42.0703C804.48 42.0703 804.569 42.1145 804.629 42.203C804.703 42.2914 804.733 42.3799 804.733 42.4536C804.733 42.5273 804.629 42.7485 804.405 43.1023C804.182 43.4562 803.943 43.8542 803.646 44.2965C803.348 44.7388 803.199 44.9895 803.184 45.0337C803.973 44.9747 804.539 44.9452 804.867 44.9452C805.194 44.9452 805.418 44.9747 805.552 45.0189C805.671 45.0632 805.82 45.1959 805.969 45.4023C806.133 45.6087 806.267 45.7709 806.401 45.8741C806.535 45.9773 806.594 46.1394 806.594 46.3458C806.594 46.5523 806.46 46.7439 806.207 46.8766C805.954 47.024 805.671 47.1125 805.373 47.142C803.005 47.3779 801.71 47.4958 801.471 47.5106C800.652 48.7638 799.491 50.7099 798.016 53.3489C796.542 55.988 795.753 57.654 795.663 58.3174C795.619 58.627 795.604 58.8629 795.604 59.0546C795.604 59.4527 795.812 59.6443 796.229 59.6443C796.646 59.6443 797.108 59.4821 797.614 59.1725C798.121 58.8482 798.597 58.5091 799.014 58.1405C800.161 57.138 800.771 56.6219 800.846 56.6219C801.114 56.6219 801.248 57.079 801.248 57.9783C801.248 58.4649 801.025 58.9072 800.563 59.3052C799.535 60.1751 798.672 60.8385 797.972 61.2808C797.272 61.7231 796.572 61.9443 795.857 61.9443C795.708 61.9443 795.559 61.9295 795.425 61.9C794.606 61.7526 794.01 61.4578 793.638 61.0154C793.251 60.5732 793.072 59.9834 793.072 59.2463C793.072 58.5091 793.296 57.595 793.742 56.5335C794.189 55.472 794.74 54.3367 795.41 53.1425C796.512 51.1817 797.614 49.3535 798.701 47.6433L798.121 47.717C796.944 47.8497 796.259 47.9086 796.065 47.9086H795.931C795.634 47.9086 795.351 47.8497 795.083 47.7317C794.815 47.6138 794.666 47.4663 794.666 47.3042C794.666 47.1272 794.74 46.9651 794.889 46.8029C795.038 46.6407 795.127 46.508 795.157 46.4196C795.232 46.1984 795.5 45.9478 795.961 45.6824C796.423 45.417 796.765 45.2696 797.004 45.2548C797.242 45.2401 797.465 45.2254 797.689 45.2106C797.912 45.1959 798.15 45.1959 798.418 45.1811C798.687 45.1664 798.895 45.1664 799.044 45.1516L800.414 45.0927C801.263 43.8247 801.859 42.9991 802.171 42.6453C802.499 42.2767 802.678 42.085 802.722 42.0555C802.767 42.0261 802.871 41.9966 803.035 41.9966L803.765 41.9229Z" fill="#B1B1B1"/>
<path d="M812.923 56.6515C813.117 56.6515 813.236 56.799 813.281 57.0938C813.325 57.3887 813.34 57.6836 813.34 58.0079C813.34 58.3323 813.311 58.5387 813.251 58.6566C812.953 59.2169 812.313 59.9098 811.315 60.7207C810.317 61.5316 809.364 61.9444 808.471 61.9444C807.92 61.9444 807.413 61.7822 806.937 61.4579C806.475 61.1335 806.237 60.5585 806.237 59.7476C806.237 58.9368 806.46 58.1259 806.892 57.3445C804.36 60.4848 802.395 62.0476 800.95 62.0476C800.384 62.0476 799.922 61.8412 799.565 61.4431C799.208 61.0451 799.044 60.6322 799.044 60.1899C799.044 59.7624 799.103 59.3201 799.223 58.863C799.342 58.406 799.476 57.9932 799.61 57.6246C799.744 57.256 799.952 56.8137 800.22 56.283C800.488 55.7522 800.697 55.3689 800.816 55.1182C800.935 54.8676 801.159 54.5138 801.456 54.0272C801.754 53.5407 802.127 52.8772 802.603 52.0516C803.08 51.226 803.467 50.6068 803.78 50.2087C804.092 49.8106 804.39 49.6042 804.688 49.6042C804.986 49.6042 805.239 49.7222 805.462 49.9581C805.686 50.194 805.805 50.4004 805.805 50.5478C805.805 50.6952 805.462 51.3734 804.777 52.5824C802.767 56.1945 801.754 58.288 801.754 58.8925C801.754 59.04 801.814 59.1137 801.918 59.1137C802.409 59.1137 803.631 58.0669 805.567 55.9733C807.503 53.8798 808.634 52.5382 808.947 51.9484C809.26 51.3587 809.543 50.8574 809.841 50.4593C810.124 50.0613 810.347 49.8106 810.496 49.7222C810.928 49.4421 811.494 49.2946 812.194 49.2651C812.313 49.2651 812.387 49.2651 812.447 49.2799C812.506 49.2946 812.581 49.3831 812.655 49.5305C812.73 49.678 812.774 49.8106 812.774 49.9138C812.685 50.194 812.283 50.9459 811.553 52.1696C810.838 53.3933 810.436 54.0862 810.362 54.2336C809.156 56.6958 808.56 58.3028 808.56 59.04C808.56 59.4675 808.724 59.6739 809.051 59.6739C809.647 59.6002 810.362 59.1284 811.196 58.2733C811.509 57.9637 811.806 57.6393 812.104 57.315C812.402 56.9906 812.596 56.799 812.655 56.7547C812.73 56.681 812.819 56.6515 812.923 56.6515Z" fill="#B1B1B1"/>
<path d="M817.346 53.1575C819.744 50.4595 821.799 49.1031 823.482 49.1031C823.899 49.1031 824.242 49.221 824.51 49.4716C824.778 49.7223 824.912 50.0319 824.912 50.43C824.912 50.828 824.629 51.4767 824.063 52.4056C823.497 53.3197 822.976 54.1011 822.499 54.735C822.246 55.0594 821.963 55.2215 821.635 55.2215C821.323 55.2215 821.069 55.1036 820.891 54.8677C820.712 54.6318 820.623 54.3664 820.623 54.0568C820.623 53.3639 820.995 52.5677 821.755 51.6979L821.725 51.6684C821.382 51.6979 820.563 52.3613 819.223 53.6293C817.897 54.9119 816.766 56.0619 815.827 57.0645C814.904 58.0817 813.891 59.3054 812.789 60.765C812.477 61.1926 812.209 61.4137 811.985 61.4137C811.762 61.4137 811.479 61.34 811.121 61.2073C810.764 61.0746 810.541 60.9714 810.466 60.9125C810.392 60.8535 810.347 60.7503 810.347 60.6029C810.347 60.4702 810.392 60.2932 810.466 60.1163C810.541 59.9247 810.704 59.6593 810.913 59.3202C811.121 58.9811 811.464 58.4208 811.911 57.6542C812.358 56.8875 813.043 55.7228 813.981 54.1748C814.919 52.6267 815.47 51.6832 815.664 51.3588C816.051 50.6953 816.364 50.2088 816.617 49.9139C817.078 49.339 817.853 49.0588 818.94 49.0588C819.178 49.0588 819.312 49.2063 819.312 49.5159C819.312 49.9877 818.865 50.887 817.987 52.1844L817.346 53.1575Z" fill="#B1B1B1"/>
<path d="M833.773 50.0907C833.773 50.7542 833.505 51.3439 832.954 51.8452C832.403 52.3465 831.792 52.5971 831.092 52.5971C830.869 52.5971 830.72 52.5381 830.645 52.4349C830.571 52.3317 830.541 52.1843 830.541 52.0221C830.541 51.8599 830.556 51.683 830.601 51.5208C830.228 51.6388 829.826 51.8304 829.379 52.0811C828.933 52.3317 828.382 52.7003 827.726 53.2016C827.071 53.7028 826.744 54.0567 826.744 54.3073C826.744 54.381 826.863 54.4253 827.101 54.4253C827.339 54.4253 827.712 54.3368 828.203 54.1746C828.694 54.0124 829.052 53.924 829.245 53.924C829.439 53.924 829.573 53.9387 829.633 53.9535C829.767 54.0272 829.901 54.1746 830.065 54.4105C830.213 54.6464 830.288 54.8381 830.288 54.9708C830.288 55.1034 830.154 55.2804 829.886 55.5015C829.618 55.7227 829.32 55.8848 828.992 56.0028C828.65 56.1207 828.426 56.2092 828.322 56.2682C826.178 57.4624 825.105 58.2733 825.105 58.7156C825.105 59.497 825.776 59.895 827.131 59.895C827.995 59.895 828.873 59.6296 829.737 59.0841C830.482 58.6271 831.152 58.1553 831.747 57.6688C832.343 57.197 832.715 56.9021 832.879 56.7842C833.043 56.6662 833.162 56.622 833.237 56.622C833.505 56.622 833.639 56.9169 833.639 57.5066C833.639 58.0963 833.609 58.4797 833.534 58.6566C833.46 58.8483 833.266 59.0694 832.924 59.3495C830.75 61.104 828.68 61.9886 826.744 61.9886C825.701 61.9886 824.882 61.8411 824.257 61.561C823.11 61.045 822.544 60.2636 822.544 59.2021C822.544 57.8162 823.512 56.7547 825.463 56.047C825.076 55.8701 824.822 55.6637 824.718 55.3836C824.599 55.1182 824.554 54.6906 824.554 54.1009C824.554 53.5112 824.837 52.892 825.388 52.2285C825.939 51.5651 826.624 51.0196 827.429 50.6067C829.216 49.6484 830.824 49.1766 832.224 49.1766C832.566 49.1766 832.894 49.2504 833.251 49.4125C833.609 49.5747 833.773 49.7959 833.773 50.0907Z" fill="#B1B1B1"/>
<path d="M868.531 39.8294H868.725C868.784 39.8294 868.829 39.8294 868.844 39.8441C868.859 39.8589 868.874 39.8589 868.903 39.8736C868.933 39.8736 868.948 39.8884 868.978 39.9179C869.022 39.9621 869.097 40.0063 869.186 40.0505C869.305 40.139 869.365 40.2422 869.365 40.3602C869.365 40.4781 869.246 40.7287 869.008 41.1121C868.769 41.4954 868.159 42.4242 867.161 43.928C864.882 47.378 862.842 50.592 861.04 53.5407C857.928 58.6714 856.349 61.2514 856.319 61.2809C856.29 61.3104 856.275 61.3399 856.26 61.3694C856.245 61.4284 856.215 61.4578 856.141 61.4578L855.932 61.4136L855.515 61.5168L855.277 61.4726L855.024 61.5168H854.934L854.086 61.6348C853.579 61.6348 853.326 61.4578 853.326 61.1187C853.326 60.9713 853.371 60.7944 853.46 60.588C853.773 59.8508 855.366 57.1823 858.226 52.5529C856.349 52.5971 854.488 52.6266 852.656 52.6266L849.38 52.6119C848.843 53.467 848.099 54.6759 847.161 56.2535C845.135 59.6886 844.063 61.4136 843.929 61.4431C843.795 61.4726 843.691 61.5021 843.601 61.5021C843.512 61.5021 843.438 61.4578 843.378 61.3546C843.304 61.2662 843.259 61.2072 843.229 61.2072C843.199 61.2072 843.155 61.2219 843.065 61.2662C842.991 61.3104 842.872 61.3252 842.708 61.3252L842.35 61.3104L842.216 61.222C842.202 61.222 842.187 61.2367 842.172 61.2662C842.157 61.2957 842.112 61.3104 842.053 61.3104C841.621 61.3104 841.397 61.1335 841.397 60.7649C841.397 60.529 841.487 60.2047 841.651 59.8066C841.829 59.4085 842.053 58.981 842.336 58.5239C842.619 58.0669 843.333 56.9611 844.51 55.2362C845.671 53.5112 846.252 52.6413 846.252 52.6266C846.059 52.6119 845.835 52.6119 845.582 52.5971C845.061 52.5971 844.703 52.5824 844.48 52.5381C843.899 52.4349 843.497 51.9632 843.289 51.1228C843.17 50.71 843.125 50.4446 843.14 50.3119C843.14 50.0465 843.259 49.8991 843.497 49.8991L843.899 50.0023C844.108 50.017 844.584 50.0318 845.359 50.076C846.133 50.1202 846.684 50.135 847.027 50.135L847.89 50.1055C849.216 48.0562 850.794 45.7267 852.641 43.1319C851.301 44.2229 849.811 44.7684 848.173 44.7684C847.399 44.7684 846.729 44.5915 846.178 44.2229C845.612 43.8543 845.344 43.3825 845.344 42.8223C845.344 42.262 845.552 41.8197 845.984 41.4807C846.416 41.1563 846.818 40.9941 847.205 40.9941C847.593 40.9941 847.786 41.0531 847.786 41.171C847.786 41.2153 847.727 41.2595 847.622 41.3037C847.518 41.3627 847.458 41.4069 847.458 41.4512C847.458 41.6133 847.637 41.7608 847.995 41.8787C848.352 41.9967 848.754 42.0704 849.201 42.0704C849.648 42.0704 850.184 41.9377 850.839 41.6871C851.494 41.4364 852.164 41.0973 852.864 40.6993C853.847 40.139 854.622 39.6672 855.188 39.2986C855.515 39.1365 855.813 39.0627 856.111 39.0627C856.409 39.0627 856.602 39.0922 856.736 39.1659C856.87 39.2249 856.96 39.2986 857.019 39.3576C857.079 39.4166 857.153 39.505 857.213 39.6082C857.287 39.7115 857.347 39.7999 857.421 39.8441C857.481 39.9031 857.526 39.9621 857.526 40.0358C857.526 40.1095 857.481 40.2127 857.406 40.3749C857.332 40.5223 856.945 41.1416 856.245 42.2178C855.545 43.2941 854.637 44.6652 853.535 46.3312C852.432 47.9972 851.628 49.2209 851.122 50.017C853.847 50.017 856.781 49.9728 859.938 49.8696C863.78 43.8691 865.806 40.7287 866.014 40.4339C866.223 40.139 866.416 39.9473 866.595 39.8589C866.774 39.7704 866.982 39.7262 867.235 39.7262L868.531 39.8294Z" fill="#B1B1B1"/>
<path d="M873.505 49.8843C873.818 49.8843 874.131 50.0169 874.443 50.2971C874.771 50.5772 874.92 50.99 874.92 51.5502C874.92 52.1105 874.726 52.8329 874.324 53.7323C873.922 54.6169 873.386 55.5309 872.686 56.4598C872.001 57.3739 871.227 58.2437 870.408 59.0546C869.574 59.8655 868.68 60.5289 867.727 61.0449C866.759 61.561 865.895 61.8263 865.106 61.8263C864.317 61.8263 863.691 61.5757 863.215 61.0892C862.738 60.6026 862.5 59.9244 862.5 59.0546C862.5 58.1847 862.723 57.2117 863.155 56.1649C863.587 55.1034 864.138 54.1746 864.823 53.3637C865.508 52.5528 866.238 51.8304 867.042 51.1817C868.695 49.8548 870.154 49.2061 871.405 49.2061C871.971 49.2061 872.388 49.3387 872.671 49.6189C872.776 49.7073 872.82 49.7958 872.82 49.8548V49.9432C872.984 49.8842 873.207 49.8843 873.505 49.8843ZM871.971 51.8893H871.867C871.51 51.8893 871.331 51.6387 871.331 51.1227C870.586 51.3586 869.812 51.7861 868.993 52.3906C868.174 52.9951 867.444 53.7175 866.804 54.5431C865.493 56.1944 864.838 57.595 864.823 58.7302C864.823 59.2905 865.032 59.5706 865.449 59.5706C865.866 59.5706 866.491 59.2905 867.31 58.7597C868.129 58.229 868.948 57.4476 869.767 56.4303C870.571 55.4277 871.182 54.5431 871.584 53.806C871.986 53.0688 872.195 52.5675 872.195 52.2874C872.18 52.022 872.105 51.8893 871.971 51.8893Z" fill="#B1B1B1"/>
<path d="M874.592 61.4872L873.848 61.4577H873.579C873.475 61.4282 873.371 61.3693 873.252 61.2808C873.133 61.1923 873.043 61.1186 872.984 61.0891C872.924 61.0597 872.894 60.9712 872.894 60.868C872.894 60.7648 872.939 60.5731 873.014 60.3225C874.994 56.0027 876.915 52.538 878.777 49.9579C878.985 49.6778 879.313 49.4567 879.76 49.3092C880.206 49.1618 880.653 49.0881 881.085 49.0881C881.338 49.0881 881.472 49.2797 881.472 49.6778C881.472 49.7958 881.428 49.9432 881.353 50.1201C881.279 50.3118 881.07 50.6066 880.743 51.0342C880.415 51.4618 880.028 51.9483 879.581 52.479C879.134 53.0098 878.881 53.3342 878.822 53.4226C880.221 51.9925 881.472 50.931 882.604 50.2233C883.736 49.5304 884.54 49.1765 885.046 49.1765C885.553 49.1765 885.94 49.324 886.208 49.6041C886.476 49.8842 886.61 50.1938 886.61 50.5182C886.61 50.8425 886.58 51.1227 886.536 51.3291C886.491 51.5502 886.402 51.7714 886.283 52.0073C886.163 52.2431 886.059 52.4496 885.97 52.6117C885.88 52.7739 885.732 52.9951 885.538 53.2604C885.329 53.5258 885.195 53.7175 885.121 53.8207C885.046 53.9239 884.883 54.1155 884.644 54.3957C884.406 54.6758 884.272 54.838 884.257 54.8675C884.54 54.5873 884.942 54.1745 885.449 53.6143C885.955 53.054 886.387 52.597 886.744 52.2284C887.102 51.8598 887.533 51.4323 888.07 50.9605C888.606 50.4887 889.097 50.1054 889.544 49.8252C890.646 49.1471 891.763 48.7932 892.895 48.7932C893.282 48.7932 893.61 48.9112 893.878 49.1618C894.146 49.4124 894.28 49.6926 894.28 50.0317C894.28 50.3707 893.863 51.1816 893.044 52.4496C892.225 53.7175 891.391 55.0002 890.572 56.2828C889.752 57.5655 889.335 58.3764 889.335 58.7155C889.335 59.1725 889.425 59.4526 889.589 59.5411C889.767 59.6296 889.976 59.659 890.214 59.6443C890.452 59.6296 890.81 59.4674 891.242 59.1725C891.688 58.8776 892.076 58.5828 892.418 58.2584C892.984 57.7571 893.49 57.2706 893.982 56.7988C894.086 56.7104 894.19 56.6661 894.324 56.6661C894.518 56.6661 894.637 56.8136 894.682 57.1084C894.726 57.4033 894.741 57.6982 894.741 58.0225C894.741 58.3469 894.712 58.5533 894.652 58.6712C894.354 59.2315 893.699 59.9244 892.701 60.75C891.688 61.5609 890.72 61.9737 889.797 61.9737C889.678 61.9737 889.604 61.9737 889.559 61.959C888.516 61.8558 887.787 61.5757 887.385 61.1039C886.982 60.6321 886.789 60.0719 886.789 59.4379C886.789 58.8039 887.012 58.0078 887.459 57.0937C887.906 56.1796 888.382 55.3392 888.918 54.6021C889.455 53.8649 889.931 53.1867 890.378 52.5822C890.825 51.9778 891.048 51.6534 891.048 51.6092C891.048 51.565 891.003 51.5355 890.929 51.5355C890.616 51.5355 889.916 52.0367 888.814 53.054C886.953 54.779 885.344 56.445 883.989 58.0373C883.632 58.4648 882.783 59.5263 881.457 61.2513C881.309 61.4577 881.055 61.5609 880.728 61.5609C880.4 61.5609 880.058 61.502 879.7 61.3693C879.343 61.2366 879.164 61.0744 879.164 60.8827C879.164 60.7795 879.968 59.3642 881.591 56.6367C883.215 53.9091 884.019 52.4201 884.019 52.1842C884.019 51.9335 883.87 51.8156 883.572 51.8156C883.274 51.8156 882.649 52.2579 881.711 53.1425C879.134 55.5751 877.139 58.0078 875.724 60.4109C875.635 60.5584 875.456 60.7795 875.188 61.0744C874.92 61.3693 874.681 61.4872 874.592 61.4872Z" fill="#B1B1B1"/>
<path d="M904.124 50.0907C904.124 50.7542 903.856 51.3439 903.305 51.8452C902.754 52.3465 902.143 52.5971 901.443 52.5971C901.22 52.5971 901.071 52.5381 900.996 52.4349C900.922 52.3317 900.892 52.1843 900.892 52.0221C900.892 51.8599 900.907 51.683 900.952 51.5208C900.579 51.6388 900.177 51.8304 899.731 52.0811C899.284 52.3317 898.733 52.7003 898.078 53.2016C897.422 53.7028 897.095 54.0567 897.095 54.3073C897.095 54.381 897.214 54.4253 897.452 54.4253C897.69 54.4253 898.063 54.3368 898.554 54.1746C899.046 54.0124 899.403 53.924 899.597 53.924C899.79 53.924 899.924 53.9387 899.984 53.9535C900.118 54.0272 900.252 54.1746 900.416 54.4105C900.565 54.6464 900.639 54.8381 900.639 54.9708C900.639 55.1034 900.505 55.2804 900.237 55.5015C899.969 55.7227 899.671 55.8848 899.343 56.0028C899.001 56.1207 898.777 56.2092 898.673 56.2682C896.529 57.4624 895.456 58.2733 895.456 58.7156C895.456 59.497 896.127 59.895 897.482 59.895C898.346 59.895 899.224 59.6296 900.088 59.0841C900.833 58.6271 901.503 58.1553 902.098 57.6688C902.694 57.197 903.066 56.9021 903.23 56.7842C903.394 56.6662 903.513 56.622 903.588 56.622C903.856 56.622 903.99 56.9169 903.99 57.5066C903.99 58.0963 903.96 58.4797 903.885 58.6566C903.811 58.8483 903.617 59.0694 903.275 59.3495C901.101 61.104 899.031 61.9886 897.095 61.9886C896.052 61.9886 895.233 61.8411 894.608 61.561C893.461 61.045 892.895 60.2636 892.895 59.2021C892.895 57.8162 893.863 56.7547 895.814 56.047C895.427 55.8701 895.174 55.6637 895.069 55.3836C894.95 55.1182 894.905 54.6906 894.905 54.1009C894.905 53.5112 895.188 52.892 895.739 52.2285C896.29 51.5651 896.975 51.0196 897.78 50.6067C899.567 49.6484 901.175 49.1766 902.575 49.1766C902.917 49.1766 903.245 49.2504 903.603 49.4125C903.96 49.5747 904.124 49.7959 904.124 50.0907Z" fill="#B1B1B1"/>
<path d="M753.161 65.5712C757.078 67.193 761.069 68.4462 765.134 69.4045C769.17 70.407 773.281 71.1147 777.391 71.557C779.446 71.8371 781.516 71.8666 783.556 72.0583C785.626 72.073 787.681 72.2352 789.736 72.1173L792.819 72.0435C793.847 72.0288 794.874 71.8961 795.902 71.8371C796.929 71.7487 797.957 71.7045 798.97 71.5718L802.023 71.1442C806.118 70.7019 810.094 69.7583 814.056 68.6231C818.062 67.5321 821.844 66.0872 825.85 64.5834C829.946 63.0944 834.383 62.1213 838.881 62.5931C841.1 62.8732 843.334 63.5809 845.151 64.8783C846.982 66.161 848.293 67.9891 849.127 69.9058C847.876 68.1955 846.312 66.7949 844.51 65.9251C842.708 65.0552 840.727 64.7014 838.762 64.7604C834.785 64.8193 830.869 66.1315 827.19 67.7827C823.452 69.6109 819.402 71.2621 815.321 72.6333C811.211 73.9454 806.967 74.9922 802.663 75.523C794.1 76.6435 785.328 76.6582 776.87 74.9627C772.625 74.1961 768.485 73.0019 764.479 71.4833C760.503 69.9058 756.616 68.0629 753.161 65.5712Z" fill="#B1B1B1"/>
<path d="M895.576 41.0236C892.255 39.623 888.874 38.532 885.449 37.6769C882.039 36.7776 878.584 36.1436 875.114 35.7013C873.386 35.4359 871.629 35.3769 869.901 35.1705C868.159 35.1263 866.431 34.9494 864.689 35.0231C863.825 35.0379 862.947 35.0379 862.083 35.0231C861.219 35.0231 860.341 35.1116 859.477 35.1411C858.613 35.2 857.734 35.2148 856.871 35.3032L854.279 35.6128C850.809 35.893 847.444 36.6006 844.078 37.4705C840.668 38.2814 837.436 39.4314 833.996 40.5813C830.467 41.7461 826.639 42.4537 822.797 41.923C820.906 41.6134 819 40.9499 817.496 39.7705C815.962 38.6057 814.919 37.0135 814.279 35.3475C815.336 36.807 816.647 38.0013 818.151 38.7384C819.655 39.4756 821.308 39.7852 822.961 39.7705C826.297 39.7705 829.603 38.7089 832.73 37.382C835.917 35.8782 839.417 34.5513 842.902 33.4603C846.416 32.4135 850.08 31.6174 853.743 31.2341C861.055 30.4674 868.531 30.6443 875.694 32.3251C879.283 33.077 882.783 34.227 886.134 35.6423C889.5 37.0872 892.746 38.7679 895.576 41.0236Z" fill="#B1B1B1"/>
<path d="M1017.12 59.3628V29.198H1035.07V59.3481H1017.12V59.3628ZM1032.89 52.345L1033.36 49.013L1031.69 48.8508L1031.18 51.4162C1030.14 51.9322 1028.86 52.1828 1027.32 52.1828C1025.24 52.1828 1023.59 51.5341 1022.38 50.222C1021.16 48.9098 1020.56 47.1848 1020.56 45.0323C1020.56 42.9388 1021.16 41.2138 1022.34 39.8574C1023.51 38.501 1025.06 37.8228 1026.98 37.8228C1027.97 37.8228 1028.8 37.9408 1029.47 38.1619C1030.14 38.3831 1030.75 38.678 1031.33 39.0613L1031.82 41.5971L1033.52 41.435L1033.03 38.103C1032.31 37.4985 1031.47 37.012 1030.48 36.6286C1029.5 36.26 1028.28 36.0684 1026.83 36.0684C1025.12 36.0684 1023.65 36.4812 1022.41 37.3216C1021.17 38.1619 1020.21 39.2677 1019.52 40.6388C1018.84 42.0247 1018.49 43.5138 1018.49 45.106C1018.49 47.6271 1019.28 49.7354 1020.86 51.4162C1022.44 53.0969 1024.5 53.9373 1027.04 53.9373C1029.54 53.9373 1031.49 53.4065 1032.89 52.345Z" fill="#B1B1B1"/>
<path d="M1041.16 59.3628V29.198H1048.87V59.3481H1041.16V59.3628ZM1041.98 53.6719H1048.07V52.1533H1045.97V35.3165H1041.95V36.835H1044.08V52.1533H1041.98V53.6719Z" fill="#B1B1B1"/>
<path d="M1054.97 59.3628V29.198H1068.52V59.3481H1054.97V59.3628ZM1057.42 42.7029L1056.99 45.4451L1058.55 45.6368L1059.02 43.5875C1059.69 43.2631 1060.45 43.1009 1061.34 43.1009C1062.41 43.1009 1063.14 43.3663 1063.51 43.8971C1063.89 44.4278 1064.06 45.1208 1064.06 45.9759V47.0374C1063.74 47.0079 1063.39 46.9784 1063.02 46.9637C1062.65 46.949 1062.29 46.9342 1061.93 46.9342C1060.59 46.9342 1059.31 47.1701 1058.12 47.6419C1056.93 48.1137 1056.34 49.1015 1056.34 50.5905C1056.34 51.8585 1056.74 52.7283 1057.56 53.2001C1058.38 53.6866 1059.18 53.9225 1059.97 53.9225C1060.94 53.9225 1061.77 53.6719 1062.46 53.1706C1063.14 52.6694 1063.68 52.1091 1064.06 51.4604V51.5194C1064.09 53.1264 1064.82 53.9225 1066.25 53.9225C1066.8 53.9225 1067.33 53.7899 1067.82 53.5245L1067.79 52.3008C1067.55 52.404 1067.28 52.463 1066.98 52.463C1066.3 52.463 1065.96 52.0354 1065.96 51.1803V45.5336C1065.96 42.8798 1064.53 41.5529 1061.67 41.5529C1060.88 41.5529 1060.13 41.6414 1059.43 41.8183C1058.72 42.0099 1058.05 42.3048 1057.42 42.7029ZM1064.05 49.2194C1063.97 50.1925 1063.57 50.9739 1062.84 51.5341C1062.11 52.1091 1061.34 52.3892 1060.51 52.3892C1059.98 52.3892 1059.48 52.2418 1059 51.9617C1058.51 51.6816 1058.27 51.1508 1058.27 50.3841C1058.27 49.4553 1058.64 48.8656 1059.36 48.5855C1060.09 48.3053 1060.89 48.1726 1061.8 48.1726C1062.2 48.1726 1062.59 48.1874 1062.96 48.2316C1063.33 48.2611 1063.71 48.2906 1064.03 48.3053V49.2194H1064.05Z" fill="#B1B1B1"/>
<path d="M1074.62 59.3628V29.198H1086.94V59.3481H1074.62V59.3628ZM1085.64 50.2367C1085.64 49.2931 1085.39 48.6002 1084.88 48.1432C1084.38 47.6861 1083.77 47.3765 1083.02 47.1996C1082.28 47.0227 1081.55 46.8752 1080.82 46.7573C1080.09 46.6393 1079.46 46.4477 1078.96 46.197C1078.45 45.9464 1078.2 45.5041 1078.2 44.8701C1078.2 44.2657 1078.44 43.8234 1078.93 43.5285C1079.42 43.2336 1080.03 43.1009 1080.79 43.1009C1081.67 43.1009 1082.49 43.2926 1083.25 43.6907L1083.54 45.6073L1085.11 45.4156L1084.81 42.6439C1084.3 42.3343 1083.69 42.0837 1082.96 41.8773C1082.23 41.6708 1081.46 41.5529 1080.62 41.5529C1079.52 41.5529 1078.51 41.8183 1077.57 42.3343C1076.63 42.8503 1076.17 43.7349 1076.17 45.0028C1076.17 45.9317 1076.42 46.6099 1076.93 47.0374C1077.44 47.4797 1078.06 47.7746 1078.82 47.9515C1079.58 48.1284 1080.33 48.2759 1081.07 48.4085C1081.82 48.5265 1082.44 48.7329 1082.95 48.9983C1083.45 49.2637 1083.71 49.7207 1083.71 50.3841C1083.71 51.0623 1083.38 51.5636 1082.72 51.888C1082.07 52.2123 1081.32 52.3745 1080.48 52.3745C1079.52 52.3745 1078.63 52.1828 1077.81 51.7848L1077.88 50.2072L1076.38 50.045L1076.01 52.7431C1076.53 53.0822 1077.21 53.3623 1078.05 53.5834C1078.88 53.8046 1079.72 53.9225 1080.56 53.9225C1082.01 53.9225 1083.22 53.5982 1084.18 52.9347C1085.15 52.3008 1085.64 51.3867 1085.64 50.2367Z" fill="#B1B1B1"/>
<path d="M1093.03 59.3628V29.198H1105.35V59.3481H1093.03V59.3628ZM1104.05 50.2367C1104.05 49.2931 1103.8 48.6002 1103.29 48.1432C1102.78 47.6861 1102.17 47.3765 1101.43 47.1996C1100.68 47.0227 1099.95 46.8752 1099.22 46.7573C1098.49 46.6393 1097.87 46.4477 1097.36 46.197C1096.86 45.9464 1096.6 45.5041 1096.6 44.8701C1096.6 44.2657 1096.84 43.8234 1097.33 43.5285C1097.82 43.2336 1098.44 43.1009 1099.19 43.1009C1100.07 43.1009 1100.89 43.2926 1101.65 43.6907L1101.95 45.6073L1103.51 45.4156L1103.22 42.6439C1102.71 42.3343 1102.1 42.0837 1101.37 41.8773C1100.64 41.6708 1099.86 41.5529 1099.03 41.5529C1097.93 41.5529 1096.92 41.8183 1095.98 42.3343C1095.04 42.8503 1094.58 43.7349 1094.58 45.0028C1094.58 45.9317 1094.83 46.6099 1095.34 47.0374C1095.84 47.4797 1096.47 47.7746 1097.23 47.9515C1097.99 48.1284 1098.73 48.2759 1099.48 48.4085C1100.22 48.5265 1100.85 48.7329 1101.35 48.9983C1101.86 49.2637 1102.11 49.7207 1102.11 50.3841C1102.11 51.0623 1101.79 51.5636 1101.13 51.888C1100.48 52.2123 1099.73 52.3745 1098.88 52.3745C1097.93 52.3745 1097.04 52.1828 1096.22 51.7848L1096.29 50.2072L1094.79 50.045L1094.41 52.7431C1094.94 53.0822 1095.62 53.3623 1096.45 53.5834C1097.29 53.8046 1098.12 53.9225 1098.97 53.9225C1100.42 53.9225 1101.62 53.5982 1102.59 52.9347C1103.56 52.3008 1104.05 51.3867 1104.05 50.2367Z" fill="#B1B1B1"/>
<path d="M1111.44 59.3628V29.198H1119.55V59.3481H1111.44V59.3628ZM1112.63 53.6719H1118.72V52.1533H1116.62V41.8035H1112.58V43.3221H1114.74V52.1533H1112.64V53.6719H1112.63ZM1114.53 36.3043V38.7369H1116.59V36.3043H1114.53Z" fill="#B1B1B1"/>
<path d="M1125.64 59.3628V29.198H1138.61V59.3481H1125.64V59.3628ZM1137.45 49.6765L1135.83 49.3226C1135.47 51.3277 1134.39 52.3303 1132.6 52.3303C1131.41 52.3303 1130.5 51.9322 1129.87 51.1361C1129.25 50.3399 1128.93 49.2194 1128.93 47.8041C1128.93 46.5214 1129.22 45.4304 1129.77 44.5163C1130.32 43.6022 1131.24 43.1599 1132.52 43.1599C1133.51 43.1599 1134.37 43.3811 1135.09 43.8234L1135.55 45.8285L1137.11 45.6368L1136.65 42.7766C1136.04 42.3196 1135.4 41.9952 1134.73 41.8183C1134.06 41.6414 1133.33 41.5529 1132.54 41.5529C1130.68 41.5529 1129.26 42.2016 1128.34 43.499C1127.4 44.7964 1126.94 46.2708 1126.94 47.9073C1126.94 49.8092 1127.43 51.2982 1128.43 52.345C1129.41 53.4065 1130.74 53.9373 1132.39 53.9373C1134.04 53.9373 1135.26 53.4802 1136.04 52.5809C1136.81 51.6668 1137.29 50.7085 1137.45 49.6765Z" fill="#B1B1B1"/>
<path d="M1024.88 75.8309C1024.54 76.4501 1024.03 76.9367 1023.38 77.2758C1022.71 77.6149 1021.92 77.7918 1021 77.7918H1018.33V69.4766H1021C1021.92 69.4766 1022.72 69.6387 1023.38 69.9778C1024.03 70.3169 1024.54 70.7887 1024.88 71.4227C1025.23 72.0566 1025.39 72.7791 1025.39 73.6342C1025.39 74.4745 1025.23 75.2117 1024.88 75.8309ZM1023.41 75.9931C1023.99 75.4329 1024.27 74.6515 1024.27 73.6342C1024.27 72.6169 1023.99 71.8355 1023.41 71.2752C1022.83 70.715 1021.99 70.4349 1020.89 70.4349H1019.39V76.8335H1020.89C1021.99 76.8335 1022.83 76.5534 1023.41 75.9931Z" fill="#B1B1B1"/>
<path d="M1030.91 70.3464V73.1919H1034.1V74.0175H1030.91V76.9219H1034.46V77.7918H1029.83V69.4766H1034.46V70.3464H1030.91Z" fill="#B1B1B1"/>
<path d="M1043.87 76.7304C1043.68 77.0695 1043.39 77.3496 1043.01 77.556C1042.62 77.7624 1042.14 77.8803 1041.56 77.8803C1041.01 77.8803 1040.5 77.7771 1040.07 77.5855C1039.64 77.3791 1039.3 77.1137 1039.03 76.7598C1038.78 76.406 1038.63 76.0079 1038.58 75.5656H1039.75C1039.78 75.8015 1039.85 76.0374 1039.98 76.2586C1040.12 76.4797 1040.33 76.6714 1040.58 76.8188C1040.83 76.9662 1041.15 77.04 1041.52 77.04C1041.99 77.04 1042.37 76.922 1042.62 76.6566C1042.87 76.3913 1043.01 76.0817 1043.01 75.6836C1043.01 75.3445 1042.92 75.0644 1042.74 74.858C1042.56 74.6515 1042.34 74.4746 1042.08 74.3567C1041.83 74.2387 1041.46 74.106 1041.01 73.9586C1040.48 73.7817 1040.06 73.6195 1039.73 73.4721C1039.4 73.3247 1039.13 73.0888 1038.91 72.7791C1038.69 72.4695 1038.57 72.0715 1038.57 71.5702C1038.57 71.1426 1038.67 70.7593 1038.88 70.4202C1039.09 70.0959 1039.39 69.8305 1039.79 69.6536C1040.18 69.4766 1040.65 69.3882 1041.17 69.3882C1041.99 69.3882 1042.66 69.5798 1043.14 69.9779C1043.63 70.376 1043.9 70.8773 1043.99 71.4965H1042.83C1042.77 71.1721 1042.59 70.8773 1042.32 70.6266C1042.04 70.376 1041.67 70.2433 1041.19 70.2433C1040.76 70.2433 1040.4 70.3612 1040.15 70.5824C1039.88 70.8035 1039.76 71.1279 1039.76 71.526C1039.76 71.8503 1039.85 72.1157 1040.01 72.3074C1040.19 72.5138 1040.4 72.6612 1040.65 72.7791C1040.91 72.8971 1041.26 73.015 1041.7 73.1625C1042.23 73.3394 1042.66 73.5016 1043.01 73.6637C1043.33 73.8259 1043.62 74.0618 1043.84 74.3714C1044.06 74.681 1044.18 75.1086 1044.18 75.6394C1044.15 76.0227 1044.06 76.3913 1043.87 76.7304Z" fill="#B1B1B1"/>
<path d="M1049.68 69.4766V77.7918H1048.59V69.4766H1049.68Z" fill="#B1B1B1"/>
<path d="M1060.67 70.1107C1061.34 70.5972 1061.79 71.2459 1062.01 72.0716H1060.86C1060.67 71.5703 1060.33 71.1575 1059.86 70.8626C1059.4 70.553 1058.85 70.4056 1058.21 70.4056C1057.65 70.4056 1057.12 70.5383 1056.68 70.8036C1056.23 71.069 1055.87 71.4376 1055.61 71.9241C1055.35 72.4107 1055.22 72.9857 1055.22 73.6491C1055.22 74.3273 1055.35 74.917 1055.61 75.4036C1055.86 75.8901 1056.23 76.2734 1056.69 76.5388C1057.15 76.8042 1057.69 76.9369 1058.3 76.9369C1058.82 76.9369 1059.28 76.8189 1059.72 76.6125C1060.15 76.3914 1060.49 76.067 1060.77 75.6542C1061.06 75.2414 1061.2 74.7401 1061.26 74.1799H1057.96V73.3837H1062.17V74.3715C1062.1 75.035 1061.89 75.6247 1061.55 76.1702C1061.2 76.7157 1060.74 77.1285 1060.16 77.4381C1059.58 77.7477 1058.93 77.9099 1058.18 77.9099C1057.38 77.9099 1056.66 77.733 1056.04 77.3792C1055.41 77.0253 1054.94 76.5241 1054.59 75.8753C1054.25 75.2414 1054.07 74.5042 1054.07 73.6786C1054.07 72.853 1054.25 72.1158 1054.59 71.4818C1054.94 70.8479 1055.43 70.3319 1056.04 69.978C1056.65 69.6242 1057.36 69.4325 1058.17 69.4325C1059.18 69.403 1060 69.6389 1060.67 70.1107Z" fill="#B1B1B1"/>
<path d="M1073.16 77.7918H1072.08L1067.71 71.2163V77.7918H1066.63V69.4766H1067.71L1072.08 76.0521V69.4766H1073.16V77.7918Z" fill="#B1B1B1"/>
<path d="M1088.83 76.7304C1088.64 77.0695 1088.35 77.3496 1087.97 77.556C1087.58 77.7624 1087.1 77.8803 1086.52 77.8803C1085.97 77.8803 1085.46 77.7771 1085.03 77.5855C1084.6 77.3791 1084.26 77.1137 1083.99 76.7598C1083.74 76.406 1083.59 76.0079 1083.54 75.5656H1084.7C1084.73 75.8015 1084.81 76.0374 1084.94 76.2586C1085.08 76.4797 1085.29 76.6714 1085.54 76.8188C1085.79 76.9662 1086.1 77.04 1086.48 77.04C1086.95 77.04 1087.33 76.922 1087.58 76.6566C1087.83 76.3913 1087.97 76.0817 1087.97 75.6836C1087.97 75.3445 1087.88 75.0644 1087.7 74.858C1087.52 74.6515 1087.3 74.4746 1087.04 74.3567C1086.79 74.2387 1086.42 74.106 1085.97 73.9586C1085.43 73.7817 1085.02 73.6195 1084.69 73.4721C1084.36 73.3247 1084.09 73.0888 1083.87 72.7791C1083.65 72.4695 1083.53 72.0715 1083.53 71.5702C1083.53 71.1426 1083.63 70.7593 1083.84 70.4202C1084.05 70.0959 1084.35 69.8305 1084.75 69.6536C1085.14 69.4766 1085.61 69.3882 1086.13 69.3882C1086.95 69.3882 1087.62 69.5798 1088.1 69.9779C1088.59 70.376 1088.86 70.8773 1088.95 71.4965H1087.79C1087.73 71.1721 1087.55 70.8773 1087.28 70.6266C1087 70.376 1086.63 70.2433 1086.15 70.2433C1085.72 70.2433 1085.36 70.3612 1085.11 70.5824C1084.84 70.8035 1084.72 71.1279 1084.72 71.526C1084.72 71.8503 1084.81 72.1157 1084.97 72.3074C1085.15 72.5138 1085.36 72.6612 1085.61 72.7791C1085.87 72.8971 1086.22 73.015 1086.66 73.1625C1087.19 73.3394 1087.62 73.5016 1087.97 73.6637C1088.29 73.8259 1088.58 74.0618 1088.8 74.3714C1089.02 74.681 1089.14 75.1086 1089.14 75.6394C1089.11 76.0227 1089.02 76.3913 1088.83 76.7304Z" fill="#B1B1B1"/>
<path d="M1098.7 69.4766V70.3464H1096.34V77.7918H1095.23V70.3464H1092.87V69.4766H1098.7Z" fill="#B1B1B1"/>
<path d="M1103.77 69.4766V74.4598C1103.77 75.2707 1103.95 75.8752 1104.32 76.2732C1104.69 76.6566 1105.18 76.863 1105.84 76.863C1106.48 76.863 1106.97 76.6713 1107.33 76.2732C1107.68 75.8752 1107.86 75.2854 1107.86 74.4745V69.4913H1108.95V74.4745C1108.95 75.6098 1108.67 76.4649 1108.1 77.0251C1107.53 77.6001 1106.78 77.8803 1105.82 77.8803C1104.88 77.8803 1104.12 77.6001 1103.56 77.0251C1102.99 76.4502 1102.71 75.6098 1102.71 74.4745V69.4913H1103.77V69.4766Z" fill="#B1B1B1"/>
<path d="M1120.16 75.8309C1119.82 76.4501 1119.31 76.9367 1118.66 77.2758C1117.99 77.6149 1117.2 77.7918 1116.28 77.7918H1113.61V69.4766H1116.28C1117.2 69.4766 1118 69.6387 1118.66 69.9778C1119.31 70.3169 1119.82 70.7887 1120.16 71.4227C1120.51 72.0566 1120.67 72.7791 1120.67 73.6342C1120.67 74.4745 1120.51 75.2117 1120.16 75.8309ZM1118.7 75.9931C1119.28 75.4329 1119.57 74.6515 1119.57 73.6342C1119.57 72.6169 1119.28 71.8355 1118.7 71.2752C1118.12 70.715 1117.29 70.4349 1116.19 70.4349H1114.68V76.8335H1116.19C1117.27 76.8335 1118.12 76.5534 1118.7 75.9931Z" fill="#B1B1B1"/>
<path d="M1126.21 69.4766V77.7918H1125.12V69.4766H1126.21Z" fill="#B1B1B1"/>
<path d="M1136.87 69.919C1137.5 70.2876 1137.99 70.7889 1138.35 71.4376C1138.7 72.0863 1138.88 72.8235 1138.88 73.6344C1138.88 74.4452 1138.7 75.1824 1138.35 75.8311C1137.99 76.4798 1137.5 76.9811 1136.87 77.3497C1136.25 77.7183 1135.55 77.8952 1134.77 77.8952C1134 77.8952 1133.28 77.7183 1132.66 77.3497C1132.03 76.9811 1131.53 76.4798 1131.17 75.8311C1130.81 75.1824 1130.63 74.4452 1130.63 73.6344C1130.63 72.8235 1130.81 72.0863 1131.17 71.4376C1131.53 70.7889 1132.02 70.2876 1132.66 69.919C1133.3 69.5505 1134 69.3735 1134.77 69.3735C1135.55 69.3735 1136.25 69.5505 1136.87 69.919ZM1133.21 70.7741C1132.75 71.0395 1132.39 71.4081 1132.14 71.9094C1131.88 72.3959 1131.75 72.9709 1131.75 73.6344C1131.75 74.2831 1131.88 74.858 1132.14 75.3593C1132.39 75.8606 1132.75 76.2292 1133.21 76.4946C1133.67 76.7599 1134.18 76.8926 1134.76 76.8926C1135.32 76.8926 1135.84 76.7599 1136.31 76.4946C1136.77 76.2292 1137.13 75.8458 1137.38 75.3593C1137.63 74.8728 1137.77 74.2978 1137.77 73.6491C1137.77 72.9856 1137.63 72.4107 1137.38 71.9241C1137.13 71.4376 1136.77 71.0543 1136.31 70.7889C1135.84 70.5235 1135.34 70.3908 1134.76 70.3908C1134.19 70.3761 1133.67 70.5088 1133.21 70.7741Z" fill="#B1B1B1"/>
</svg>
