<svg width="24" height="25" viewBox="0 0 24 25" fill="none" xmlns="http://www.w3.org/2000/svg">
<path d="M11.8447 0.949097C18.2666 0.949097 23.4697 6.15222 23.4697 12.5741C23.4697 18.996 18.2666 24.1991 11.8447 24.1991C5.42285 24.1991 0.219727 18.996 0.219727 12.5741C0.219727 6.15222 5.42285 0.949097 11.8447 0.949097ZM11.8447 21.9491C17.001 21.9491 21.2197 17.7772 21.2197 12.5741C21.2197 7.41785 17.001 3.1991 11.8447 3.1991C6.6416 3.1991 2.46973 7.41785 2.46973 12.5741C2.46973 17.7772 6.6416 21.9491 11.8447 21.9491ZM14.7041 17.0741L10.7197 14.1678C10.5791 14.0741 10.5322 13.8866 10.5322 13.746V6.0116C10.5322 5.73035 10.7666 5.4491 11.0947 5.4491H12.5947C12.876 5.4491 13.1572 5.73035 13.1572 6.0116V12.6678L16.251 14.9647C16.5322 15.1522 16.5791 15.4803 16.3916 15.7616L15.501 16.9335C15.3135 17.2147 14.9854 17.2616 14.7041 17.0741Z" fill="#D9D9D9"/>
</svg>
