<svg width="91" height="91" viewBox="0 0 91 91" fill="none" xmlns="http://www.w3.org/2000/svg">
<path d="M45.5234 5.98703e-06C36.5274 -0.00460377 27.7319 2.65287 20.2484 7.6366C12.7649 12.6203 6.92944 19.7066 3.47932 27.9999C0.029207 36.2933 -0.880826 45.4214 0.864559 54.2307C2.60994 63.0401 6.93237 71.1352 13.2853 77.4932C19.6383 83.8511 27.7368 88.1865 36.5574 89.9515C45.378 91.7164 54.5246 90.8317 62.8416 87.4091C71.1586 83.9865 78.2726 78.1797 83.2844 70.7225C88.2963 63.2653 90.9814 54.4923 90.9999 45.5123C91.0122 39.542 89.8451 33.6278 87.5655 28.108C85.2859 22.5883 81.9386 17.5713 77.7148 13.3442C73.491 9.11707 68.4735 5.7627 62.9498 3.47296C57.4261 1.18323 51.5045 0.00307081 45.5234 5.98703e-06ZM60.9792 29.9669C64.5728 33.5372 66.8144 38.2412 67.3219 43.2768C67.8294 48.3124 66.5715 53.3678 63.7623 57.581C60.9532 61.7942 56.7668 64.9042 51.9173 66.3808C47.0678 67.8573 41.8555 67.6089 37.1689 65.678C32.4823 63.7471 28.6118 60.2532 26.2174 55.7921C23.8231 51.331 23.053 46.1789 24.0387 41.2145C25.0244 36.25 27.7046 31.7805 31.6225 28.5682C35.5403 25.3559 40.4533 23.5997 45.5234 23.599C48.3934 23.5884 51.237 24.1457 53.8899 25.2387C56.5428 26.3318 58.9523 27.9388 60.9792 29.9669Z" fill="#1D2B3C"/>
</svg>
